<?xml version="1.0" encoding="utf-8" ?>
<svg xmlns="http://www.w3.org/2000/svg" xmlns:xlink="http://www.w3.org/1999/xlink" width="1024" height="1024">
	<path fill="white" d="M-0 -0L1024 0L1024 1024L-0 1024L0 -0Z"/>
	<path fill="#010101" d="M81.2063 57.6296C90.8468 57.0405 100.859 57.5684 110.535 57.5823L178.097 57.9582L391.25 57.9171L770.275 57.8732L894.278 57.8122L938.803 57.7847C944.243 57.8802 948.532 58.4431 953.365 61.118C958.996 64.2349 963.312 70.3543 964.944 76.5C966.583 82.6718 966.022 89.7214 966.029 96.0625L966.051 123.219L966.165 218.647L965.922 701.234L966.02 866.209L965.947 916.46C965.916 925.624 966.417 935.337 965.44 944.444C965.109 947.531 964.008 950.591 962.489 953.286C958.788 959.848 952.957 963.326 945.925 965.349C939.204 967.104 930.151 966.088 923.18 966.084L883.534 966.062L718.194 966.039L293.67 966.031L152.061 966.037L82.75 965.985C78.5623 965.868 74.0136 964.635 70.4092 962.498C64.964 959.269 60.0749 953.514 58.6802 947.236C57.8439 943.472 58.0598 939.627 58.0632 935.799L58.0835 921.035L58.1821 869.5L58.1085 674.093L58.0785 498.418L58.4917 284.525L58.304 137.97L58.5155 81C58.6529 76.8186 60.4424 71.6325 62.8256 68.2134C67.1379 62.0265 73.979 58.8032 81.2063 57.6296Z"/>
	<path fill="white" d="M810.161 871.25C811.075 871.129 811.169 871.112 812.063 871.5C811.548 872.743 809.252 875.571 807.902 875.998C807.286 876.193 806.639 875.554 806.123 875.25C805.024 874.41 804.107 873.381 803.142 872.392L803.634 871.714L810.161 871.25Z"/>
	<path fill="white" d="M208.129 867.778L216.447 873.16L215.417 877.25L214.75 878.745C212.186 875.227 210.001 871.71 208.129 867.778Z"/>
	<path fill="white" d="M296.635 847.497L304.981 847.49L303.04 852.848C302.561 853.692 302.313 854.107 301.56 854.75C299.661 852.508 298.181 849.986 296.635 847.497Z"/>
	<path fill="white" d="M800.459 808.356C804.684 809.2 809.149 809.312 813.445 809.647L809.899 813.634L807.216 816.186C804.698 814.229 802.505 810.854 800.459 808.356Z"/>
	<path fill="white" d="M225.298 811.144L227 811.114L227.48 811.75C225.039 814.311 222.226 817.063 218.75 818.097L217.303 817.182L212.487 811.939C216.55 812.076 220.332 812.106 224.34 811.334L225.298 811.144Z"/>
	<path fill="white" d="M312.261 810.75C313.379 810.516 313.683 810.253 314.767 810.71C311.808 814.861 307.934 817.932 303.936 821.032L300.847 818.324L295.604 814.103C301.519 813.861 306.625 812.471 312.261 810.75Z"/>
	<path fill="white" d="M228.618 750.808C231.46 750.887 234.316 750.988 237.145 750.655C241.245 750.171 245.236 749.215 249.379 749.676C249.064 751.684 244.616 754.575 242.966 755.768L236.572 759.903L228.668 752.248L228.618 750.808Z"/>
	<path fill="white" d="M730.574 813.129L732 812.812L732.632 813.25C728.661 818.347 723.519 822.772 718.666 827.007L716.278 823.321L710.444 814.106C717.858 815.135 723.314 814.698 730.574 813.129Z"/>
	<path fill="white" d="M736.993 840.25L738.33 840.2L724.726 856.073L722.563 852.544L716.874 842.736L736.993 840.25Z"/>
	<defs>
		<linearGradient id="gradient_0" gradientUnits="userSpaceOnUse" x1="348.00665" y1="629.68658" x2="342.37433" y2="674.85962">
			<stop offset="0" stop-color="#D2D1D1"/>
			<stop offset="1" stop-color="white"/>
		</linearGradient>
	</defs>
	<path fill="url(#gradient_0)" d="M340.804 625.873C345.116 629.64 348.83 635.09 353.751 638.039L344.03 680.595L340.488 656.384L345.309 663.552C345.615 660.79 346.284 657.934 346.24 655.161C346.085 645.556 342.725 635.31 340.804 625.873Z"/>
	<path fill="white" d="M735.244 712.414L753.828 711.129L748.209 730.642C746.116 729.969 733.75 723.642 732.55 722.25C731.676 721.235 731.919 719.764 731.957 718.501C732.057 715.205 732.971 714.555 735.244 712.414Z"/>
	<path fill="white" d="M209.402 771.343C214.968 772.368 220.579 773.677 226.25 773.891C229.593 774.017 235.345 773.194 238.348 774.307C239.221 774.631 239.07 774.726 239.449 775.5C237.827 778.531 234.162 781.186 231.603 783.518L222.661 791.558C217.705 784.489 212.707 779.532 209.402 771.343Z"/>
	<path fill="white" d="M817.242 774.201L822.133 773.882L803.392 795.174L800.182 791.212C796.127 786.14 792.453 780.538 790.196 774.435C799.342 775.193 808.103 775.029 817.242 774.201Z"/>
	<path fill="white" d="M119.698 831.25C120.106 831.354 119.89 831.245 120.25 831.722C115.502 839.068 108.597 845.855 102.896 852.519C97.1713 859.211 91.8091 866.38 85.727 872.729L85.7087 839.92C97.6422 840.185 109.693 838.059 119.698 831.25Z"/>
	<path fill="white" d="M902.076 831.559C905.495 833.133 908.792 835.167 912.298 836.522C920.138 839.552 928.26 839.551 936.505 839.153L936.598 872.755L902.076 831.559Z"/>
	<path fill="#C7C6C6" d="M772.354 656.896C774.588 660.189 776.214 663.833 778.269 667.238L785.679 678.707C790.21 685.986 794.925 693.905 800.568 700.365C795.806 705.689 789.627 709.633 782.57 710.702L772.354 656.896Z"/>
	<path fill="#C7C6C6" d="M122.038 771.75L122.355 772.516C115.567 787.519 104.584 801.531 93.0799 813.214C90.8728 815.455 88.5276 818.335 85.7142 819.75C85.0436 815.587 85.8783 810.278 85.9348 806C86.0649 796.145 86.0959 786.241 85.4309 776.405C93.6582 777.977 103.763 777.25 111.873 775.104C115.291 774.2 118.646 772.799 122.038 771.75Z"/>
	<path fill="#C7C6C6" d="M719.295 743.92C711.252 736.409 709.096 722.974 706.883 712.621L735.244 712.414C732.971 714.555 732.057 715.205 731.957 718.501C731.919 719.764 731.676 721.235 732.55 722.25C733.75 723.642 746.116 729.969 748.209 730.642C746.521 735.502 744.7 739.096 741.595 743.21L741.576 743.215C736.697 743.538 722.909 741.98 719.295 743.92Z"/>
	<path fill="white" d="M899.603 772.155C903.6 773.227 907.572 774.714 911.642 775.44C919.577 776.857 928.227 776.138 936.291 776.085C937.204 777.831 936.555 783.244 936.549 785.539L936.286 819.198C932.06 816.412 928.618 812.664 925.168 809.001C914.557 797.734 906.67 785.886 899.603 772.155Z"/>
	<path fill="white" d="M394.525 851.027L394.223 852.024L394.717 852.772C398.993 853.251 401.774 853.614 405.856 851.975L406.532 851.697C404.476 856.017 402.217 860.278 399.294 864.086C397.236 866.768 388.25 874.588 388.25 877.032C391.905 879.153 399.18 878.508 403.439 878.599L400.162 888.084L398.75 887.424C393.639 884.757 388.861 880.717 384.077 877.477L368.927 867.488C366.808 866.033 363.979 864.44 362.572 862.25C359.822 857.968 358.548 850.53 357.114 845.521L376.331 845.484C378.578 847.014 381.287 846.955 383.898 847.386C386.046 847.74 388.174 848.464 390.262 849.072C391.978 849.571 393.201 849.675 394.525 851.027Z"/>
	<path fill="#C7C6C6" d="M228.668 752.248C224.143 748.47 220.04 743.752 216.146 739.336C207.738 729.799 199.387 718.829 193.202 707.689C197.527 709.69 201.944 711.844 206.614 712.912C216.11 715.083 225.372 713.486 234.899 712.845L249.236 712.391C245.625 722.214 241.024 731.752 235.718 740.781C233.902 743.871 229.365 747.675 228.618 750.808L228.668 752.248Z"/>
	<path fill="white" d="M782.568 711.149C795.175 713.092 808.165 716.657 820.986 714.692C825.257 714.037 829.25 712.553 833.226 710.914L801.863 750.057C797.386 755.35 791.792 759.605 787.6 765.164L787.113 765.821L781.829 755.127C781.032 753.379 779.951 751.461 779.597 749.573C780.806 749.454 781.993 749.807 783.207 749.889C786.873 750.137 794.079 749.417 796.823 747.105L796.32 746.883C789.288 742.682 784.253 719.112 782.568 711.149Z"/>
	<path fill="white" d="M890.965 652.082C905.818 658.441 920.773 660.642 936.692 662.569L936.175 710.25L935.548 710.697C931.463 708.704 927.789 705.106 924.539 701.972C910.647 688.572 897.779 670.22 890.965 652.082Z"/>
	<path fill="#C7C6C6" d="M283.098 746.083C280.943 743.118 279.468 737.949 278.295 734.45C275.249 725.363 272.296 716.224 270.694 706.759C271.839 708.398 272.539 710.465 273.327 712.299L321.216 712.415L324.457 700.384C324.7 702.874 323.941 705.948 323.588 708.437C321.919 720.209 318.657 733.877 313.028 744.393L293.241 744.528C290.387 744.55 286.397 744.078 283.823 745.249L283.098 746.083Z"/>
	<path fill="white" d="M283.098 746.083L283.823 745.249C286.397 744.078 290.387 744.55 293.241 744.528L313.028 744.393C311.93 745.585 309.714 747.418 309.172 748.877C313.418 749.595 317.698 749.443 321.988 749.409L310.82 764.367C307.03 769.374 303.273 774.69 298.827 779.137C305.268 781.419 311.121 779.947 317.695 779.087C313.642 786.109 308.042 791.88 302.5 797.751C301.042 799.295 299.086 801.919 297.195 802.72C293.095 799.91 280.818 789.058 279.609 784.259C279.427 783.538 279.853 782.732 280.061 782.043C282.865 781.543 286.321 782.16 289.193 782.273C292.958 782.421 296.722 781.989 300.409 781.234L268.487 751.045L288.191 755.168L287.81 754.652C285.891 751.996 284.415 749.078 283.098 746.083Z"/>
	<path fill="#C7C6C6" d="M132.989 710.75C134.115 710.524 134.419 710.239 135.487 710.75C133.406 714.696 130.193 718.468 127.501 722.046C115.423 738.1 101.422 753.745 85.4285 765.967L85.5799 711.552C96.7005 712.765 108.375 714.692 119.532 713.641C124.126 713.209 128.552 711.957 132.989 710.75Z"/>
	<path fill="white" d="M888.302 710.308C891.647 711.298 894.952 712.658 898.38 713.306C911.003 715.693 923.833 712.627 936.502 712.601L936.384 766.25C936.239 767.459 936.433 766.875 935.75 767.983C927.638 762.267 920.793 754.861 914.425 747.302C904.677 735.727 896.092 723.275 888.302 710.308Z"/>
	<path fill="white" d="M719.295 743.92C722.909 741.98 736.697 743.538 741.576 743.215L736.708 747.627C741.533 749.122 746.52 749.425 751.509 748.62C747.691 758.743 739.836 774.876 729.443 779.588L728.905 779.792C734.949 781.466 741.442 781.25 747.648 780.952C743.208 789.374 738.526 796.753 731.372 803.201C730.028 804.412 728.581 805.979 726.905 806.674C719.557 797.726 711.834 787.214 708.436 776.05C712.914 776.412 717.53 776.701 721.75 774.871L721.897 774.145L721.36 773.852C719.579 772.653 718.13 770.324 716.926 768.567C711.734 760.991 707.394 754.198 704.685 745.245L705.497 745.391C710.239 746.225 714.842 745.808 719.295 743.92Z"/>
	<path fill="white" d="M762.704 880.75L763.418 881.023L761.03 937.979L704.76 937.701L700.357 896.426L699.825 890.344C703.019 892.705 706.1 894.619 709.79 896.115C712.522 897.222 718.417 899.787 721.144 898.63C722.195 895.863 721.844 894.448 720.821 891.817L720.538 891.097C723.494 890.081 726.64 889.636 729.625 888.629C733.925 887.177 737.699 885.003 741.625 882.747C739.996 885.89 738.107 888.686 735.648 891.233C733.568 893.386 731.27 895.365 729.04 897.362C728.683 897.682 727.258 898.751 727.096 899.096C726.967 899.369 727.051 899.699 727.029 900C730.235 901.999 735.159 901.657 738.708 900.926C741.392 900.374 743.735 898.636 745.899 897.031C751.815 892.642 758.601 886.859 762.704 880.75Z"/>
	<path fill="white" d="M281.578 879.25L282.213 879.171C283.472 879.289 285.003 880.394 286.017 881.067C290.239 883.872 294.023 887.195 297.758 890.607C300.086 890.033 302.559 888.457 304.774 887.463C306.887 886.514 309.09 886.007 311.336 885.479C309.24 889.151 306.124 892.321 303.646 895.767C302.75 897.014 301.598 898.249 301.223 899.75C302.052 900.108 303.013 900.538 303.928 900.551C305.622 900.574 307.697 899.606 309.318 899.061C316.857 896.525 321.217 893.214 326.936 887.931L326.463 938.08L298.871 938.008L264.585 938.184L260.911 881.304C271.992 891.824 282.654 899.261 297.686 902.853C293.569 894.65 286.991 886.688 281.578 879.25Z"/>
	<path fill="white" d="M180.834 866.115C194.545 882.025 208.418 895.31 228.67 902.402L218.696 886.055C222.289 885.359 225.992 884.74 229.438 883.475C234.639 881.565 239.498 878.514 244.409 875.958L244.529 904.125L243.495 938.058L183.618 938.005L180.834 866.115Z"/>
	<path fill="white" d="M870.614 864.484C883.925 876.36 898.445 889.041 916.685 892.106C923.326 893.222 929.875 892.888 936.556 892.514L936.314 937.771L874.911 938.006L870.614 864.484Z"/>
	<path fill="white" d="M346.407 886.331C351.012 890.881 355.644 893.872 361.248 897.015C363.698 898.388 366.376 900.087 369.25 900.145C370.055 897.358 368.323 894.444 367.128 892.006C383.839 894.369 399.053 900.207 414.071 907.72C421.915 911.644 429.93 915.593 437.17 920.571C442.39 924.16 447.043 928.335 451.685 932.621L456.669 938.004L349.091 937.925C347.865 934.667 348.302 928.629 348.125 925.054L346.407 886.331Z"/>
	<path fill="white" d="M680.555 890.25L681.303 890.219C682.148 894.164 681.171 899.983 680.961 904.069L679.032 938.176L567.47 938.033C569.511 935.461 571.951 933.27 574.329 931.017C593.111 915.434 616.75 902.401 640.33 895.945C647.579 893.961 655.239 892.852 662.636 891.488L658.75 898.559C658.127 900.099 657.576 900.99 658.25 902.516L658.922 902.588C666.443 903.148 675.475 894.936 680.555 890.25Z"/>
	<path fill="white" d="M851.204 863.75L852.275 863.75L847.936 938.396L783.586 938.107L781.922 904.312L780.519 876.161C786.789 880.522 794.425 883.175 801.456 886.084C797.937 890.271 793.872 894.792 792.641 900.25C793.556 901.313 793.773 901.788 795.25 901.96C796.703 902.129 799.064 901.138 800.463 900.649C806.078 898.683 811.098 895.476 816.062 892.254C822.36 888.167 828.676 883.798 834.444 878.988L851.204 863.75Z"/>
	<path fill="white" d="M158.432 859.816C159.727 867.094 159.087 875.311 159.043 882.715L157.626 938.004L85.8533 937.875L85.6835 892.387L99.374 892.586C122.062 891.029 143.758 876.574 158.432 859.816Z"/>
	<path fill="white" d="M886.763 493.25C889.218 493.028 893.544 492.509 895.895 492.965C898.442 493.459 932.335 523.095 936.862 526.56L936.409 659.406C923.603 650.953 913.3 638.916 904.013 626.854C895.239 614.821 887.421 602.692 881.322 589.064C894.224 594.26 905.917 595.561 919.471 592.281C899.698 578.371 884.634 553.762 876.879 531.113C878.751 530.801 881.145 531.343 883.051 531.55L896.154 533.121C892.966 526.064 891.053 517.759 889.044 510.304C887.589 504.907 885.675 499.254 885.199 493.672L886.763 493.25Z"/>
	<path fill="white" d="M347.532 744.72C355.743 743.598 364.786 744.13 373.085 744.1L417.487 743.978L472.996 743.615C483.541 743.542 494.347 743.11 504.864 743.758C507.856 743.943 510.555 744.385 513.089 746.123C513.677 746.526 513.542 746.51 514.018 747.25C511.845 751.279 507.666 754.466 503.248 755.682L501 756.153L500.357 756.28C494.191 757.391 486.54 756.559 480.234 756.557L437.756 756.369C431.53 756.232 423.999 755.082 417.984 756.572C415.982 757.068 414.957 758.158 413.745 759.75C413.148 763.822 413.908 766.73 416.037 770.212C416.424 770.844 416.791 771.056 417.356 771.487L417.864 771.908C414.561 786.103 412.54 800.432 407.921 814.328C406.339 819.086 404.808 824.323 401.402 828.133L413.547 828.119L403.645 839.812C400.717 843.512 397.878 847.724 394.525 851.027C393.201 849.675 391.978 849.571 390.262 849.072C388.174 848.464 386.046 847.74 383.898 847.386C381.287 846.955 378.578 847.014 376.331 845.484L380.25 844.839C380.136 843.652 374.438 838.973 373.219 837.833L347.486 815.021C346.516 814.018 346.117 813.166 346.125 811.75C348.473 810.984 354.009 812.662 356.66 813.028C362.174 813.79 367.319 814.001 372.883 813.742C364.792 807.32 359.343 798.514 353.377 790.25C350.934 786.865 347.89 783.573 346.313 779.683L347.875 779.695C352.018 779.911 355.746 779.721 359.873 779.332C357.056 774.82 354.356 770.1 351.25 765.786C347.355 760.375 343.192 755.381 340.059 749.445C343.531 749.474 347.866 751.174 351.006 749.75L347.532 744.72Z"/>
	<path fill="#C7C6C6" d="M373.219 837.833L403.645 839.812C400.717 843.512 397.878 847.724 394.525 851.027C393.201 849.675 391.978 849.571 390.262 849.072C388.174 848.464 386.046 847.74 383.898 847.386C381.287 846.955 378.578 847.014 376.331 845.484L380.25 844.839C380.136 843.652 374.438 838.973 373.219 837.833Z"/>
	<path fill="#C7C6C6" d="M119.078 506.476L134.305 511.472C133.323 514.873 131.769 518.034 131.006 521.5L131.75 522.524C138.51 523.805 144.457 521.695 150.115 518.165C148.431 525.372 145.606 531.89 142.331 538.5C134.155 555.001 123.347 568.231 107.989 578.432C113.49 580.118 119.674 581.856 125.444 582.008C132.552 582.196 139.543 580.481 146.414 578.887C142.608 588.74 137.273 597.952 131.523 606.781C121.382 622.354 109.146 637.199 93.1395 646.999C95.8249 648.195 98.9094 648.665 101.796 649.17C110.686 650.728 118.956 650.81 127.818 648.97L138.543 645.158C135.093 651.863 130.374 657.891 125.983 664C118.127 674.93 110.115 685.581 100.996 695.5C96.3389 700.566 91.5167 705.639 85.7559 709.456L85.9813 536.691L119.078 506.476Z"/>
	<path fill="#C7C6C6" d="M746.017 512.387C743.585 513.197 741.625 515.108 739.598 516.63L728.982 524.351L710.571 536.547L656.932 465.486C665.647 458.6 675.455 452.552 684.524 446.08C688.008 443.593 691.869 441.204 694.979 438.267C699.251 434.232 703.046 429.373 706.85 424.889L720.371 409.636C725.54 403.632 730.596 397.267 736.48 391.953L736.694 409.006C736.784 411.957 737.367 415.791 736.812 418.658L736.665 419.349C738.705 422.005 741.75 424.188 744.318 426.328L758.515 438.523L736.278 466.3L763.132 498.43C760.69 499.434 759.667 502.057 757.75 502.966C756.824 503.405 755.129 502.153 753.701 502.873C750.373 504.552 749.381 509.933 746.017 512.387Z"/>
	<path fill="white" d="M763.132 498.43C764.487 499.445 765.85 500.621 767.312 501.47C767.448 498.355 767.836 494.956 767.25 491.883C766.433 487.596 764.055 483.131 761.75 479.45C760.285 477.112 752.75 467.849 752.635 466.275C752.577 465.485 753.729 465.128 754.273 464.553L758.375 460.101L776.624 438.695L755.291 418.744C753.811 417.367 750.088 414.64 749.288 412.983C748.583 411.522 748.344 391.558 748.481 388.529L748.635 387.451L845.785 474.624L833.361 532.771L849.949 530.286C845.561 545.632 835.371 560.536 825.557 572.958C818.653 569.48 812.302 563.271 806.066 558.584L746.017 512.387C749.381 509.933 750.373 504.552 753.701 502.873C755.129 502.153 756.824 503.405 757.75 502.966C759.667 502.057 760.69 499.434 763.132 498.43Z"/>
	<path fill="#010101" d="M770.787 492.25L772.437 492.136C774.106 493.288 775.721 494.413 777.059 495.958C779.093 498.309 782.52 502.784 782.25 505.954C778.972 505.116 777.932 502.478 775.898 500.071C774.063 497.898 772.052 496.116 770.407 493.75L770.787 492.25Z"/>
	<path fill="white" d="M745.024 528.759L746 528.173L816.644 584.026L810.68 591.317C822.258 592.927 834.079 593.74 844.686 588.023C837.392 604.889 826.899 620.448 814.122 633.617C810.394 637.46 806.653 641.442 802.413 644.727C800.226 646.421 797.906 648.161 795.5 649.53C794.134 650.307 792.602 650.77 791.292 651.616C805.464 654.849 823.698 658.181 837.29 651.571C832.977 660.177 827.362 667.642 821.516 675.241L800.568 700.365C794.925 693.905 790.21 685.986 785.679 678.707L778.269 667.238C776.214 663.833 774.588 660.189 772.354 656.896L769.69 645.12C768.195 647.166 767.473 652.489 766.812 655.105C766.239 654.74 765.815 654.445 765.473 653.832C763.874 650.968 762.964 647.087 761.639 644.021L742.362 596.922C741.422 597.445 741.747 597.208 741.004 597.808C732.25 604.87 722.052 610.614 712.658 616.821C701.084 624.469 689.55 632.893 677.023 638.952L744.773 529.199L745.024 528.759Z"/>
	<path fill="#C7C6C6" d="M745.024 528.759L744.773 529.199L677.023 638.952C689.55 632.893 701.084 624.469 712.658 616.821C722.052 610.614 732.25 604.87 741.004 597.808C741.747 597.208 741.422 597.445 742.362 596.922L761.639 644.021C762.964 647.087 763.874 650.968 765.473 653.832C765.815 654.445 766.239 654.74 766.812 655.105L753.873 710.267L733.266 707.44L721.529 660.031L713.669 692.008C712.409 697.194 711.2 706.894 707.555 710.629L706.933 710.578C704.448 704.587 703.941 696.55 702.753 690.117C699.588 672.981 696.903 655.253 692.587 638.393C690.897 643.423 690.216 649.301 689.053 654.5L679.619 700.769L668.107 658.82L658.473 696.64L644.079 640.263L632.608 686.527L622.48 647.911C620.37 652.046 619.038 656.96 617.604 661.386C613.707 673.415 610.806 685.766 606.43 697.636L588.935 634.103L580.505 666.102C578.779 662.058 578.302 656.752 577.309 652.442L572.094 632.663C611.102 614.706 649.175 593.157 684.945 569.389L727.966 540.307C733.497 536.567 739.076 531.696 745.024 528.759Z"/>
	<path fill="#C7C6C6" d="M347.532 744.72C342.385 735.355 340.605 722.887 338.899 712.403L678.112 712.377C676.136 720.483 674.907 731.279 670.435 738.431C668.998 740.73 665.719 741.771 664.615 743.887L664.452 744.338C658.235 743.634 651.647 744.039 645.386 744.03L611.165 744.01L575.824 744.06C569.264 744.091 562.169 743.721 555.671 744.556C554.11 744.757 552.201 745.4 550.941 746.362C550.238 746.898 549.985 747.22 549.626 748C550.956 752.514 557.448 756.362 561.327 758.508C563.865 759.912 566.55 760.914 569.438 761.305C576.894 762.317 614.129 758.733 616.023 767.623C616.351 769.16 615.874 770.686 614.856 771.843C612.653 774.348 607.875 774.404 604.75 774.48L532.211 774.452L514.072 774.448C510.812 774.451 507.236 774.173 504.008 774.553C501.257 774.878 498.592 775.5 496.594 777.5C497.077 779.378 498.139 780.661 499.821 781.617C502.731 783.273 506.137 783.8 509.398 784.307C515.349 785.232 521.172 785.596 527.145 786.151C535.853 786.96 544.928 787.836 553.299 790.42C555.331 791.047 559.048 791.698 559.49 794.25C559.754 795.778 559.276 797.572 558.096 798.598C557.891 798.776 557.079 799.348 556.75 799.459C554.397 800.256 549.269 799.776 546.68 799.767L520.767 799.616L451.586 799.461L435.611 799.484C433.091 799.489 430.046 799.158 427.649 799.947L420.569 761.468L417.864 771.908L417.356 771.487C416.791 771.056 416.424 770.844 416.037 770.212C413.908 766.73 413.148 763.822 413.745 759.75C414.957 758.158 415.982 757.068 417.984 756.572C423.999 755.082 431.53 756.232 437.756 756.369L480.234 756.557C486.54 756.559 494.191 757.391 500.357 756.28L501 756.153L503.248 755.682C507.666 754.466 511.845 751.279 514.018 747.25C513.542 746.51 513.677 746.526 513.089 746.123C510.555 744.385 507.856 743.943 504.864 743.758C494.347 743.11 483.541 743.542 472.996 743.615L417.487 743.978L373.085 744.1C364.786 744.13 355.743 743.598 347.532 744.72Z"/>
	<path fill="#C7C6C6" d="M332.148 620.463L323.703 658.115C322.222 653.906 321.55 649.204 320.576 644.832C318.363 634.903 316.314 624.846 313.163 615.163L298.049 667.283C297.09 665.591 296.64 663.354 296.107 661.481L292.877 649.737L285.44 624.182L273.071 674.766L261.076 622.603L241.706 705.593C236.26 702.289 231.509 697.883 226.91 693.508C218.165 685.189 210.329 676.134 202.798 666.719C197.644 660.274 191.98 653.658 188.925 645.921C196.752 648.174 204.657 650.247 212.862 650.264C219.443 650.277 226.109 648.884 232.585 647.819C216 635.052 203.939 619.915 193.443 601.963C189.294 594.869 185.158 587.264 182.399 579.512C186.427 580.427 190.628 581.49 194.75 581.829C202.797 582.491 210.172 580.991 217.846 578.689C210.117 574.178 204.239 567.594 198.97 560.479C189.517 547.718 182.678 533.637 177.45 518.68C184.903 521.458 189.714 522.193 197.437 520.201C189.073 510.419 184.929 499.098 181.282 486.888C179.266 480.14 177.303 473.338 176.079 466.398L188.414 456.931C191.775 454.493 195.431 452.341 198.534 449.571C205.088 443.719 210.749 436.743 216.659 430.26L238.617 406.733C238.774 410.445 237.763 414.81 237.288 418.536L234.631 439.5C234.252 441.868 233.292 443.504 232.1 445.545C234.551 447.73 237.369 449.33 240.183 450.983C242.467 452.325 245.104 453.608 247.171 455.259C251.441 458.67 254.64 464.639 257.432 469.283C255.43 472.089 252.671 474.644 250.401 477.277L230.598 499.758L234.586 503.104C233.594 505.235 235.294 509.763 235.736 512.085L243.016 545.23L332.148 620.463Z"/>
	<path fill="white" d="M234.586 503.104L283.273 536.808L254.797 496.162L272.85 472.917L356.25 572.584L356.509 572L304.896 507.986L278.051 472.654L260.906 450.5C258.994 447.922 256.301 444.92 254.925 442.046C253.599 439.277 253.296 434.995 252.708 431.921L247.835 405.665C268.378 422.877 286.913 443.242 305.25 462.755L390.351 554.098C403.447 567.989 416.367 582.755 430.718 595.347C433.513 599.336 437.744 603.418 441.221 606.872L433.013 643.363L428.955 621.443L421.054 663.52L415.014 638.823C414.214 635.429 413.671 630.57 412.013 627.545L400.036 679.019L387.673 623.741L380.738 648.836C379.35 654.409 377.705 660.214 377.023 665.918L371.904 643.564C369.152 630.732 366.863 616.568 362.053 604.364L353.751 638.039C348.83 635.09 345.116 629.64 340.804 625.873C339.631 621.074 338.535 613.618 336.034 609.448L332.148 620.463L243.016 545.23L235.736 512.085C235.294 509.763 233.594 505.235 234.586 503.104Z"/>
	<path fill="#C7C6C6" d="M430.718 595.347C429.092 592.08 425.99 589.233 423.79 586.285L402.406 557.387L382.024 528.819C378.141 523.249 374.435 517.029 369.962 511.944C363.423 504.51 355.844 497.618 348.85 490.587C346.299 488.022 342.288 484.754 340.646 481.532L374.202 439.403C376.309 442.188 378.937 444.282 381.373 446.75L388.848 455.001L487.734 336.986C488.956 340.675 488.306 346.507 488.531 350.5C488.693 353.368 489.576 357.221 488.951 360C488.564 361.718 487.419 363.437 486.635 365L482.397 373.894C474.286 390.789 464.958 407.596 458.055 425.008L489.1 447.827L489.669 448.193L461.677 486.496L488.257 505.617C484.773 508.878 480.442 511.451 476.471 514.089L454.099 528.853L514.098 585.501C512.505 579.209 514.225 573.566 515.869 567.504L491.468 538.628C496.172 539.44 501.387 543.371 505.498 545.826L538.915 567.056L584.779 596.457L595.015 603.385C598.019 605.407 601.122 607.115 603.587 609.827L582.503 624.111C579.049 626.483 575.181 628.651 572.126 631.523L571.775 631.864L569.059 623.393L553.878 673.574C550.296 649.988 546.017 625.341 538.559 602.64C534.423 609.461 531.916 618.141 529.885 625.811C526.558 638.378 524.24 651.086 521.897 663.857C517.368 645.516 513.797 626.339 506.677 608.793C505.958 609.685 505.682 611.86 505.38 612.99L501.492 628.36C498.571 640.032 495.853 652.319 491.893 663.661C487.783 640.08 483.614 616.931 476.15 594.131L461.562 650.287C456.769 629.881 453.446 609.595 445.808 589.956L441.221 606.872C437.744 603.418 433.513 599.336 430.718 595.347Z"/>
	<path fill="white" d="M491.468 538.628C488.858 536.169 486.559 533.708 484.365 530.871L509.5 514.997C513.682 512.431 519.955 510.115 523.526 506.91L487.906 479.267L515.526 449.413C510.956 444.467 505.618 440.559 500.315 436.458C493.237 430.983 485.941 425.347 479.34 419.324L501.726 373.607L624.75 516.974L624.94 516.5L571.375 447.157L528.086 387.993L514.957 369.936C512.687 366.931 508.826 363.018 507.276 359.696C506.634 358.321 506.863 355.417 506.79 353.882L506.553 335.208L551.819 388.459L571.6 412.23C574.993 416.17 578.478 420.603 582.407 424.011L583.039 423.755L600.586 418.005L635.016 462.5L673.445 511.625C682.193 522.446 689.859 534.34 699.513 544.371L603.587 609.827C601.122 607.115 598.019 605.407 595.015 603.385L584.779 596.457L538.915 567.056L505.498 545.826C501.387 543.371 496.172 539.44 491.468 538.628Z"/>
	<path fill="#010101" d="M544.616 530.958C548.184 533.863 552.251 538.138 554.182 542.352C555.031 544.206 555.462 546.509 556.731 548.12L557.25 548.743L556.75 549.215L554.209 547.786L539.516 534.571C541.047 533.103 542.825 532.074 544.616 530.958Z"/>
	<path fill="white" d="M427.649 799.947C430.046 799.158 433.091 799.489 435.611 799.484L451.586 799.461L520.767 799.616L546.68 799.767C549.269 799.776 554.397 800.256 556.75 799.459C557.079 799.348 557.891 798.776 558.096 798.598C559.276 797.572 559.754 795.778 559.49 794.25C559.048 791.698 555.331 791.047 553.299 790.42C544.928 787.836 535.853 786.96 527.145 786.151C521.172 785.596 515.349 785.232 509.398 784.307C506.137 783.8 502.731 783.273 499.821 781.617C498.139 780.661 497.077 779.378 496.594 777.5C498.592 775.5 501.257 774.878 504.008 774.553C507.236 774.173 510.812 774.451 514.072 774.448L532.211 774.452L604.75 774.48C607.875 774.404 612.653 774.348 614.856 771.843C615.874 770.686 616.351 769.16 616.023 767.623C614.129 758.733 576.894 762.317 569.438 761.305C566.55 760.914 563.865 759.912 561.327 758.508C557.448 756.362 550.956 752.514 549.626 748C549.985 747.22 550.238 746.898 550.941 746.362C552.201 745.4 554.11 744.757 555.671 744.556C562.169 743.721 569.264 744.091 575.824 744.06L611.165 744.01L645.386 744.03C651.647 744.039 658.235 743.634 664.452 744.338L665.317 744.576C669.603 745.738 673.576 746.156 678 745.629L680.572 745.335C675.21 758.133 667.93 768.667 656.613 776.887C661.384 777.171 666.336 777.699 671.109 777.452C673.122 777.347 676.554 776.113 678.304 776.513C673.969 786.285 669.03 796.486 661.775 804.481C658.449 808.146 654.586 811.165 650.61 814.081C658.285 815.616 665.791 815.582 673.577 815.57C665.442 829.361 654.036 837.642 640.473 845.697L670.846 847.545C659.424 864.857 645.734 880.102 625.329 886.423L622.656 877.473C627.053 877.46 631.647 877.72 636.011 877.201L618.832 853.648L629.624 852.496L612.472 830.978C615.609 830.904 618.902 831.006 622.005 830.55L621.665 830.16C616.719 824.277 614.434 815.5 612.461 808.234C609.568 797.577 607.273 786.987 606.079 776.007C603.482 788.776 601.311 801.678 597.359 814.114C595.501 819.963 593.437 826.107 589.095 830.622L589.262 830.908L599.375 830.965C598.925 832.51 597.404 834.095 596.429 835.377C593.135 839.712 589.346 843.59 585.628 847.552C585.173 848.036 582.41 850.746 582.315 851.25C582.252 851.58 582.391 851.917 582.43 852.25C585.485 854.182 590.006 853.881 593.619 853.739C592.069 856.592 590.57 859.515 588.568 862.084C584.554 867.235 579.546 871.521 575.397 876.537C580.563 878.125 586.031 878.435 591.386 879.052C587.314 886.648 579.117 893.451 572.053 898.25C574.391 901.058 578.768 901.917 582.279 902.282L587.789 902.375C577.343 909.822 567.284 917.083 558.185 926.186C555.55 928.822 553.087 931.596 550.762 934.509C550.294 935.095 548.268 938.096 547.871 938.222C547.018 938.491 544.79 938.192 543.832 938.184L534.231 938.122L477.735 938.03L477.437 937.623C474.736 934.026 471.376 930.762 468.234 927.549C459.031 918.138 449.2 910.186 438.504 902.544C442.402 902.506 446.208 902.613 450 901.593L456.651 899.683L455.86 899.192C452.041 896.789 448.677 893.859 445.268 890.921C440.787 887.06 436.417 883.611 434.201 877.925C440.477 877.978 445.976 877.887 452.072 876.162C451.31 874.591 449.046 872.975 447.716 871.722C441.276 865.653 435.381 860.57 431.499 852.416L432.298 852.654C436.395 853.849 439.897 853.779 443.779 851.832L436.767 842.121C433.189 837.54 429.952 833.045 427.303 827.857L438.031 829.093C431.911 822.087 429.63 808.853 427.649 799.947Z"/>
	<path fill="#C7C6C6" d="M436.767 842.121L437.239 842.297C441.126 843.605 446.302 843.129 450.41 843.187L489.372 843.083C495.091 843.028 502.321 842.159 507.898 843.216C509.963 843.607 511.764 844.322 513.332 845.75C513.447 847.28 513.588 848.766 512.604 850.073C511.294 851.811 507.134 851.442 505.167 851.424L462.953 851.154C457.217 851.159 449.52 850.266 444.047 851.783L443.779 851.832L436.767 842.121Z"/>
	<path fill="white" d="M86.0791 85.6784L936.523 86.0517L936 508.355L902.75 480.992C902.03 480.419 900.793 479.269 899.969 478.991C897.594 478.188 885.084 480.587 882.115 480.952C879.506 472.105 877.962 462.725 876.178 453.675L862.916 368.25L848.267 458.567L742.383 365.438L702.538 410.63C697.307 416.517 692.574 423.138 686.974 428.671C682.491 433.1 676.18 436.706 671.016 440.384C663.833 445.5 656.891 450.974 649.404 455.649L606.023 395.343L584.995 400.424L494.986 297.223C491.011 300.796 487.953 305.774 484.679 310.007L461.243 340.718L410.539 406.573L393.317 428.033L372.929 414.731L331.779 469.024L244.447 381.288C228.084 400.038 212.987 420.296 195.683 438.209C188.996 445.131 181.664 451.399 174.395 457.696L158.958 365.501L148.419 445.928C145.485 463.606 143.134 481.563 135.36 497.91L116.987 491.075L85.824 519.949L86.0791 85.6784Z"/>
	<path fill="#010101" d="M508.132 146.942C511.747 147.231 515.248 147.526 518.793 148.339C520.49 148.728 522.529 149.667 524.168 149.866C525.758 150.06 528.437 148.648 530.075 148.298C533.113 147.649 536.536 147.729 539.638 147.644C538.34 149.042 536.474 150.097 534.905 151.193L531.75 153.018C528.955 154.577 526.928 156.271 524.594 158.442L508.132 146.942Z"/>
	<path fill="#010101" d="M636.926 299.75L637.896 300.023C636.844 302.044 629.609 304.9 627.364 306.301C625.126 307.698 623.287 309.243 621.467 311.152L620.88 311.775C617.625 308.846 614.064 306.728 610.322 304.497L603.367 299.837C607.122 300.183 610.85 300.586 614.537 301.402C616.387 301.811 618.67 302.868 620.485 303.032C621.773 303.148 624.81 301.471 626.25 301.054C629.63 300.075 633.436 299.993 636.926 299.75Z"/>
	<path fill="#010101" d="M607.473 232.96C616.213 233.555 624.258 234.144 632.236 238.116C633.178 238.585 638.198 236.053 639.447 235.6C645.8 233.298 652.093 233.742 658.668 232.905C656.577 234.503 654.526 235.758 652.211 236.987C644.65 240.606 639.29 243.946 633.281 249.85C627.205 242.135 616.063 237.286 607.473 232.96Z"/>
	<path fill="#010101" d="M334.965 167.331C342.395 168.445 350.03 168.561 357.328 170.431C359.886 171.087 362.358 171.987 364.783 173.028C365.633 173.393 367.333 174.432 368.209 174.481C370.253 174.593 374.135 172.126 376.254 171.399C378.807 170.524 381.372 169.977 384 169.398C390.124 168.047 396.65 168.086 402.893 167.463L392.8 172.511C383.69 176.823 375.894 181.073 368.778 188.301C366.288 186.149 363.892 183.71 361.146 181.892C352.803 176.368 343.292 172.813 334.965 167.331Z"/>
	<path fill="#010101" d="M171.531 159.396C178.92 161.085 186.622 160.367 194.016 162.243C196.46 162.863 198.933 163.541 201.25 164.549C202.634 165.151 207.547 168.065 208.693 168.042C209.24 168.031 211.852 166.36 212.545 165.99C214.864 164.754 217.146 163.742 219.672 162.998C228.37 160.438 237.475 160.048 246.465 159.329L237.318 163.377C227.189 168.084 217.06 173.004 208.646 180.464C197.624 171.511 184.118 165.832 171.531 159.396Z"/>
	<path fill="#010101" d="M436.949 205.75C439.536 205.852 442.603 206.71 445.21 207.11C451.312 208.045 457.767 208.873 463.687 210.655C466.795 211.591 469.739 213.231 472.789 214.372C473.262 214.549 474.504 215.188 474.922 215.153C475.938 215.067 478.194 213.698 479.25 213.273C481.985 212.175 484.879 211.291 487.724 210.528C495.612 208.411 504.138 207.367 512.216 206.099L502.753 211.957C495.751 215.588 488.098 218.918 481.676 223.501C479.228 225.249 477.016 227.62 474.873 229.726C470.969 226.452 467.116 223.333 462.722 220.736C458.353 218.153 453.836 215.978 449.245 213.831C445.246 211.961 439.426 209.568 436.949 205.75Z"/>
	<path fill="#010101" d="M282.098 208.132C291.151 207.263 300.407 209.781 306.75 216.559C310.639 220.716 313.356 225.998 315.965 231C318.649 236.147 321.259 241.667 326.47 244.75C327.356 245.274 329.11 246.299 330.094 246.484C331.357 246.721 334.098 246.029 335.387 245.731C340.786 244.487 346.548 242.223 351.5 245.951C359.014 251.608 359.686 262.236 368.398 267.006C373.159 269.613 379.818 265.658 384.611 264.3C389.582 265.221 394.238 268.019 397.25 272.116C400.038 275.908 402.15 280.531 405.536 283.841C406.786 285.064 408.888 286.811 410.627 287.239C414.148 288.105 418.903 285.877 422.47 286.543C423.102 286.661 424.384 287.7 424.938 288.093C427.711 290.059 432.041 295.047 435.323 295.553C438.024 295.97 441.368 295.167 444.147 295.181C449.169 295.208 455.126 298.882 459.594 301.093C461.606 302.088 463.82 302.865 465.401 304.5L465.054 305.558C462.78 306.828 437.309 306.064 432.722 306.09L262.75 306.185L114.516 306.211L96.3354 306.176C93.9895 306.186 90.4314 306.688 88.25 305.801C88.3215 304.735 88.4311 304.006 89.1934 303.194C91.2019 301.056 95.377 299.743 98 298.501C101.63 296.781 105.34 294.396 109.153 293.159C111.181 292.502 113.536 292.155 115.675 292.179C117.887 292.204 120.028 292.743 122.166 293.256C122.732 293.392 124.574 294.065 125.082 293.981C125.53 293.907 127.359 292.214 127.802 291.873C131.178 289.273 135.079 285.594 139.134 284.175C142.375 283.04 146.546 283.61 149.984 283.231C155.871 282.583 157.952 277.459 161.339 273.362C162.889 271.487 166.044 269.007 168.599 268.693C169.277 268.61 170.722 269.113 171.416 269.291C175.037 270.22 178.311 272.132 182.165 271.601C189.312 270.615 192.842 260.556 196.547 255.359C199.722 250.905 205.686 245.205 211.403 244.828C218.892 244.334 224.655 251.967 230 255.98C231.914 257.417 234.475 257.95 236.832 257.418C244.913 255.597 253.578 231.221 258.608 224.073C264.427 215.805 272.052 209.95 282.098 208.132Z"/>
	<path fill="#010101" d="M777.564 137.691C798.476 135.898 819.376 141.528 836.253 154.064C854.041 167.276 866.542 186.558 869.644 208.665C872.692 230.376 866.299 252.77 852.965 270.053C839.147 287.964 818.968 299.416 796.621 302.403L795.992 302.495C775.607 305.234 753.07 298.813 736.782 286.386C718.129 272.155 705.699 253.425 702.77 229.831C700.165 208.848 706.795 185.98 719.932 169.452C734.463 151.168 754.537 140.387 777.564 137.691Z"/>
</svg>
