<?xml version="1.0" encoding="utf-8" ?>
<svg xmlns="http://www.w3.org/2000/svg" xmlns:xlink="http://www.w3.org/1999/xlink" width="1024" height="1024">
	<path fill="#10B9B6" d="M1023.5 1024L-0 1024L0 -0L1023.5 0C1024.99 3.29358 1024.03 125.197 1024.03 142.873L1024 559.333L1024 631.08L1024.03 892.876L1024.03 979.519L1024.02 1022.22C1024 1022.91 1023.82 1023.4 1023.5 1024Z"/>
	<path fill="#06829C" d="M898.296 660.162L898.588 652.131C899.893 651 902.398 650.661 904.08 650.19L904.437 651.5L902.743 653.814C900.801 656.339 900.44 658.752 899 661.429C898.461 660.782 898.729 661.184 898.296 660.162Z"/>
	<path fill="#FDF9E7" d="M578.943 91.688C583.542 92.0266 588.132 93.2184 592.109 95.62C597.315 98.7648 601.191 104.12 602.529 110.045C604.004 116.577 602.928 123.859 599.048 129.435C594.503 135.967 587.585 138.432 580.023 139.587C574.586 139.322 568.712 138.352 564.273 134.946C559.281 131.115 555.267 124.755 554.604 118.439C553.897 111.715 556.089 105.258 560.354 100.071C565.273 94.09 571.532 92.3769 578.943 91.688Z"/>
	<path fill="#F54377" d="M575.635 100.589C578.562 100.28 581.474 100.269 584.236 101.377C588.679 103.159 591.812 106.661 593.528 111.081C594.984 114.83 594.74 118.105 593.003 121.706C590.794 126.284 587.012 128.988 582.302 130.579C579.718 131.126 576.819 131.094 574.296 130.289C570.358 129.032 566.869 126.217 565.107 122.429C563.235 118.406 563.097 114.254 564.667 110.097C566.614 104.943 570.883 102.6 575.635 100.589Z"/>
	<path fill="#3FDAC2" d="M124.763 764.646L68.3115 764.435C59.9341 764.007 52.6931 761.01 47.0404 754.699C41.2341 748.215 38.9639 740.891 39.5029 732.236C39.9382 725.247 43.8914 718.178 49.1521 713.652C52.961 710.375 58.1393 708.08 63.0743 707.191C68.116 706.283 73.4679 706.61 78.5708 706.621L102.496 706.711L125.953 706.726C130.542 706.73 135.248 706.501 139.81 706.937C140.061 712.189 140.367 717.461 141.809 722.55C142.978 726.673 144.907 730.412 146.437 734.393L145.775 734.713C135.758 739.612 129.17 750.838 125.801 761.098L124.763 764.646Z"/>
	<path fill="#FDF9E7" d="M243.387 180.708C252.138 180.083 261.497 182.539 268.77 187.436C280.523 195.35 285.689 206.114 288.294 219.63C292.289 216.872 296.241 215.072 301.141 214.775C307.943 214.363 314.586 216.787 319.538 221.445C324.332 225.955 327.628 232.609 327.693 239.25C327.767 246.747 325.417 253.129 320.09 258.488C317.133 261.463 313.324 263.652 309.236 264.632C302.571 266.231 294.568 265.415 287.722 265.407L253.25 265.32L217.603 265.27L198.194 265.356C193.311 265.371 187.545 265.76 182.877 264.111C176.536 261.869 171.14 256.204 168.356 250.184C165.616 244.257 165.89 236.566 168.359 230.616C170.798 224.736 176.035 220.064 181.833 217.592C188.275 214.845 195.535 215.922 201.808 218.556L202.425 218.82C203.347 217.119 203.439 214.477 203.848 212.559C205.114 206.61 208.304 200.885 212.194 196.25C220.336 186.55 231.025 181.865 243.387 180.708Z"/>
	<path fill="#FDF9E7" d="M490.817 148.647C501.257 147.658 511.062 150.063 519.588 156.25C530.767 164.362 535.39 175.387 537.483 188.576C541.683 186.28 546.399 184.026 551.25 183.813C558.07 183.515 563.835 185.735 568.844 190.338C574.099 195.167 577.387 201.86 577.481 209.059C577.566 215.583 575.106 221.821 570.504 226.416C567.71 229.206 564.556 231.356 560.722 232.422C554.249 234.222 545.977 233.271 539.226 233.279L504.125 233.308L462.963 233.412L445.44 233.487C440.458 233.495 435.504 233.746 430.735 232.03C424.058 229.627 419.262 224.617 416.283 218.293C413.415 212.204 413.552 204.227 415.971 198C418.346 191.886 423.475 186.695 429.497 184.128C437.74 180.615 445.379 182.201 453.301 185.506C454.772 178.281 456.471 172.102 460.885 166.065C468.198 156.06 478.787 150.612 490.817 148.647Z"/>
	<path fill="#28A042" d="M139.81 706.937C139.9 703.269 139.844 699.487 140.732 695.909L140.971 695C142.703 688.087 145.953 681.309 152.074 677.232C156.675 674.168 162.226 673.126 167.609 674.499C173.458 675.99 176.896 681.057 179.895 685.904L176.046 691.393L214.755 722.901L214.848 723.585C217.021 724.405 218.343 724.967 220.686 724.485L220.871 724.463C221.818 730.568 221.393 737.318 221.453 743.522L221.861 774.557C221.9 777.472 220.971 784.559 222.338 786.869L221.569 787.082L221.526 849.529L214.533 849.521L188.275 849.425L156.035 849.347L151.908 849.331L121.02 849.27L120.945 803.592C120.937 795.974 120.247 787.69 121.193 780.168C121.852 774.93 123.251 769.695 124.763 764.646L125.801 761.098C129.17 750.838 135.758 739.612 145.775 734.713L146.437 734.393C144.907 730.412 142.978 726.673 141.809 722.55C140.367 717.461 140.061 712.189 139.81 706.937Z"/>
	<path fill="#286F20" d="M151.908 849.331L151.003 848.75L151.019 784.044L151.023 763.198C151.02 759.497 150.41 754.48 151.75 751.027C153.027 750.442 153.411 750.717 154.75 751.017C155.167 751.511 155.766 751.897 156 752.5C156.282 753.228 156.064 755.588 156.075 756.455L156.077 771.508L156.035 849.347L151.908 849.331Z"/>
	<path fill="#157F3A" d="M188.275 849.425L188.199 779.697L182.786 775.847C173.113 767.883 165.943 753.703 165.054 741.207C164.683 735.991 164.686 730.451 165.25 725.255C165.406 723.821 165.159 722.228 166.119 721.126C166.049 724.873 165.975 728.52 166.39 732.25C168.238 748.872 174.832 765.402 188.257 776.042C195.489 781.774 204.652 785.962 213.929 786.706L215.002 786.637L215.757 786.067L216.57 786.242C218.378 786.607 220.079 785.971 221.569 787.082L221.526 849.529L214.533 849.521L188.275 849.425Z"/>
	<path fill="#514F33" d="M215.002 786.637L215.757 786.067L216.57 786.242C218.378 786.607 220.079 785.971 221.569 787.082L221.526 849.529L214.533 849.521L215.002 786.637Z"/>
	<path fill="#54A230" d="M176.046 691.393L214.755 722.901L214.848 723.585C217.021 724.405 218.343 724.967 220.686 724.485L220.871 724.463C221.818 730.568 221.393 737.318 221.453 743.522L221.861 774.557C221.9 777.472 220.971 784.559 222.338 786.869L221.569 787.082C220.079 785.971 218.378 786.607 216.57 786.242L215.757 786.067L215.002 786.637L213.929 786.706C204.652 785.962 195.489 781.774 188.257 776.042C174.832 765.402 168.238 748.872 166.39 732.25C165.975 728.52 166.049 724.873 166.119 721.126C166.981 719.61 167.089 715.127 167.41 713.257C168.647 706.045 171.627 697.244 176.046 691.393Z"/>
	<path fill="#286F20" d="M214.848 723.585C217.021 724.405 218.343 724.967 220.686 724.485L220.871 724.463C221.818 730.568 221.393 737.318 221.453 743.522L221.861 774.557C221.9 777.472 220.971 784.559 222.338 786.869L221.569 787.082C220.079 785.971 218.378 786.607 216.57 786.242L215.757 786.067L215.002 786.637L213.929 786.706C214.164 786.298 214.52 785.939 214.635 785.482C214.894 784.455 214.625 782.47 214.626 781.366L214.679 772.239L214.848 723.585Z"/>
	<path fill="#3FDAC2" d="M217.02 279.258L377.394 279.01L432.274 278.979C441.228 278.986 450.78 278.344 459.675 279.235C465.064 279.774 469.932 281.545 474.5 284.477C481.588 289.025 486.796 296.839 488.538 305.081C490.437 314.062 489.149 322.104 483.989 329.787L483.504 330.5C481.324 333.747 478.169 337.106 474.86 339.222L474.152 339.662L472.095 340.948C463.006 346.048 449.818 344.353 439.625 344.282L255.614 344.165L214.795 344.114C207.539 344.109 198.505 345.102 191.5 343.424C182.585 341.289 175.613 335.773 170.997 327.925C167.005 321.138 165.042 311.511 167.129 303.814L167.366 303L167.85 301.266C170.184 293.754 176.289 286.712 183.219 283.052C192.937 277.918 206.228 279.362 217.02 279.258Z"/>
	<path fill="#3FDAC2" d="M200.578 630.428L149.912 630.505L131.358 630.512C127.699 630.506 123.9 630.708 120.277 630.16L119.5 630.032L117.441 629.668C109.508 627.885 101.004 622.308 96.6833 615.297C94.5612 611.855 92.8083 608.408 91.7592 604.479C89.2401 595.043 90.4837 585.333 95.3763 576.862C100.337 568.272 108.974 562.061 118.801 560.433C126.89 559.092 136.143 559.968 144.368 559.923C148.9 559.899 153.815 560.017 158.203 558.79L159 558.551C167.427 556.099 175.027 551.637 180.067 544.258C185.58 536.185 188.26 525.933 186.222 516.264C184.401 507.623 178.778 499.001 171.289 494.172L170.611 493.75C165.634 490.552 159.894 488.104 154.02 487.216C151.014 486.762 147.747 486.974 144.709 486.958C131.565 486.892 116.348 488.734 104.5 481.994C96.4279 477.401 90.7266 469.744 88.4827 460.759C86.0684 451.093 87.7511 441.508 93.0115 433.105C97.2916 426.269 105.543 420.219 113.501 418.511L114.25 418.357C120.835 416.945 128.019 417.261 134.739 417.26L161.687 417.287L254.942 417.449C254.926 410.759 254.026 402.644 255.281 396.134L255.368 395.724L254.679 632.404L254.319 631.256C252.562 630.072 244.309 630.963 241.769 630.987L233.462 630.923L233.46 666.09C221.477 663.633 211.948 664.757 200.587 669.149L200.578 630.428Z"/>
	<path fill="#28A042" d="M200.578 630.428L200.585 611.293C200.599 607.354 200.212 602.791 201.497 599.017C202.985 594.652 206.507 590.862 210.759 589.07C214.494 587.495 219.577 587.695 223.247 589.3C228.514 591.604 230.984 595.289 232.896 600.499L233.462 630.923L233.46 666.09C221.477 663.633 211.948 664.757 200.587 669.149L200.578 630.428Z"/>
	<path fill="#06829C" d="M261.517 848.825C264.057 850.062 266.114 850.832 269 850.886L336.287 850.843L464.341 850.638L700.215 850.616L740.869 850.538L754.405 850.532C756.711 850.522 759.312 850.768 761.5 849.979L764.309 848.741C767.616 850.389 773.254 849.615 776.946 849.605C786.736 849.577 797.061 848.876 806.782 849.673L811.973 849.692L840.039 849.527L868.135 849.532L872.55 849.507L897.087 849.483C905.946 849.445 917.615 847.389 925.72 851.558L926.5 851.974C930.161 853.888 934.033 857.463 936.142 861.039L936.543 861.75L937.003 862.535C940.323 868.342 941.628 875.133 939.787 881.657L939.538 882.5C938.907 884.743 938.164 886.626 937.016 888.645L936.525 889.5C933.899 894.121 928.713 898.29 923.698 899.948L923.045 900.158C917.958 901.865 911.529 901.298 906.17 901.295L881.651 901.262L808.923 901.33L299.674 901.155L162.653 901.227L122.674 901.361C115.843 901.376 108.16 902.051 101.447 900.89C95.5503 899.869 89.6392 895.747 86.2871 890.779L85.9436 890.25C84.7813 888.491 83.8166 886.79 83.0683 884.809C80.6231 878.337 80.6258 870.753 83.6597 864.453C86.927 857.669 92.7776 852.319 100.057 850.061C106.11 848.182 114.691 849.157 121.02 849.27L151.908 849.331L156.035 849.347L188.275 849.425L214.533 849.521L221.526 849.529L249.13 849.495C252.765 849.482 258.222 850.148 261.517 848.825Z"/>
	<path fill="#3FDAC2" d="M770.081 537.459L770.136 538.133L770.381 559.623L1023.09 559.406L1023.55 559.474L1024 559.333L1024 631.08L1023.47 631.043L1003.42 630.928L968.076 630.952L947.779 630.99C944.378 630.999 940.128 630.444 936.956 631.565L936.331 632.814C930.824 633.082 925.34 633.102 919.877 632.274L918.235 637.808L926.941 649.384C923.747 652.323 920.586 655.615 917.027 658.097L908.921 652.054C908.266 651.541 906.576 649.962 905.75 649.911C905.187 649.877 904.637 650.097 904.08 650.19C902.398 650.661 899.893 651 898.588 652.131L898.296 660.162L897.853 664.74L887.9 664.304L889.323 674.5C890.564 680.154 892.209 684.744 895.315 689.681L895.696 690.298C899.82 696.903 905.788 701.843 913.5 703.52L916.75 704.038L917.673 704.163C936.642 706.615 956.571 698.716 970.617 716.246C975.861 722.79 977.866 731.178 976.899 739.451C975.976 747.348 971.572 755.79 965.299 760.755C961.384 763.853 956.087 766.296 951.174 767.157C947.882 767.734 944.304 767.484 940.965 767.49L924.746 767.501C915.734 767.499 906.103 768.194 897.154 767.392L897.087 849.483L872.55 849.507L868.135 849.532L840.039 849.527L811.973 849.692L806.782 849.673C797.061 848.876 786.736 849.577 776.946 849.605C773.254 849.615 767.616 850.389 764.309 848.741L766.658 846.601C768.893 844.409 769.936 841.761 770.351 838.703C771.308 831.651 770.525 823.347 770.537 816.147L770.579 766.953L770.473 690.461L770.081 537.459Z"/>
	<path fill="#10B9B6" d="M900.055 580.843C902.806 582.691 904.992 585.412 907.228 587.835L903.232 593.044C901.953 592.719 901.215 592.677 900.239 591.765L900.055 580.843Z"/>
	<path fill="#28A042" d="M791.002 671.696L791.005 619.187L791.038 604.066C791.055 600.821 790.847 597.352 791.482 594.156C792.14 590.845 793.729 587.969 796.093 585.574C799.763 581.857 804.084 580.403 809.239 580.413C813.504 580.421 817.552 581.844 820.616 584.884C822.973 587.222 824.604 590.491 825.148 593.759C825.636 596.693 825.424 599.847 825.434 602.813L825.478 618.047L825.568 672.502L823.342 671.511C811.185 666.154 803.011 667.017 791.002 671.696Z"/>
	<path fill="#FDF9E7" d="M867.589 657.815L865.75 658.58L856.635 648.482L865.495 635.75C865.376 635.034 865.224 634.538 864.811 633.932C864.688 633.751 863.916 632.574 863.75 632.505C862.141 631.833 858.864 632.336 857 632.186C853.994 631.944 850.956 631.329 847.981 630.827C847.993 626.327 847.207 620.137 848.283 615.856L863.212 614.42C864.025 612.217 864.364 609.902 864.791 607.6C860.891 604.808 857.768 600.329 854.907 596.526L866.271 585.602C869.662 588.647 873.891 591.104 876.907 594.453L877.185 594.774L882.847 591.415L884.014 578.008L895.185 577.977C896.555 577.986 898.283 577.697 899.455 578.5L900.055 580.843L900.239 591.765C901.215 592.677 901.953 592.719 903.232 593.044L906.25 594.963C910.146 593.341 913.556 588.186 917.47 585.864C921.377 589.432 925.4 592.973 928.766 597.07C926.895 599.041 925.02 600.894 923.745 603.326C925.844 606.693 925.717 610.976 926.089 614.842L936.858 617.485L936.956 631.565L936.331 632.814C930.824 633.082 925.34 633.102 919.877 632.274L918.235 637.808L926.941 649.384C923.747 652.323 920.586 655.615 917.027 658.097L908.921 652.054C908.266 651.541 906.576 649.962 905.75 649.911C905.187 649.877 904.637 650.097 904.08 650.19C902.398 650.661 899.893 651 898.588 652.131L898.296 660.162L897.853 664.74L887.9 664.304C886.792 664.112 886.137 664.032 885.177 663.391C882.534 661.623 883.311 655.033 882.612 652.127L882.46 651.61L882.226 652.936C879.175 654.209 876.058 654.492 873.021 655.591C871.104 656.285 869.722 657.879 867.589 657.815Z"/>
	<path fill="#06829C" d="M867.589 657.815L878.859 648.958L882.46 651.61L882.226 652.936C879.175 654.209 876.058 654.492 873.021 655.591C871.104 656.285 869.722 657.879 867.589 657.815Z"/>
	<path fill="#06829C" d="M923.745 603.326C925.844 606.693 925.717 610.976 926.089 614.842C924.316 614.589 921.744 614.556 920.25 613.563C919.767 612.016 919.565 610.721 919.573 609.09C919.585 606.543 921.984 605.062 923.745 603.326Z"/>
	<path fill="#FA4E4F" d="M889.866 598.437C892.814 598.509 895.659 598.489 898.5 599.368L899.298 599.609C904.902 601.375 910.351 606.406 912.896 611.75C915.422 617.057 915.809 624.366 913.713 629.88C911.408 635.945 906.119 641.234 900.109 643.655C896.485 645.116 892.607 645.567 888.734 645.133C885.013 644.213 881.777 643.022 878.585 640.854C873.655 637.507 869.974 632.288 868.993 626.363C867.971 620.191 869.016 613.42 872.685 608.25C876.961 602.226 882.777 599.619 889.866 598.437Z"/>
	<path fill="#66C132" d="M791.002 671.696C803.011 667.017 811.185 666.154 823.342 671.511L825.568 672.502C835.935 678.702 842.83 686.746 849.001 697.028C851.232 691.065 854.354 686.703 860.259 683.867C865.02 681.58 870.541 681.478 875.449 683.386C881.251 685.642 885.782 690.55 888.138 696.265C890.947 703.079 891.209 710.665 888.397 717.534C886.028 723.32 881.847 727.571 876.073 729.973C874.256 730.729 872.442 731.235 870.5 731.541C882.003 736.626 890.264 744.501 895.008 756.378C896.415 759.899 897.148 763.602 897.154 767.392L897.087 849.483L872.55 849.507L868.135 849.532L840.039 849.527L811.973 849.692L806.782 849.673C797.061 848.876 786.736 849.577 776.946 849.605C773.254 849.615 767.616 850.389 764.309 848.741L766.658 846.601C768.893 844.409 769.936 841.761 770.351 838.703C771.308 831.651 770.525 823.347 770.537 816.147L770.579 766.953L770.473 690.461C776.374 683.046 781.933 675.453 791.002 671.696Z"/>
	<path fill="#704326" d="M806.962 784.716L806.947 746.071C806.946 744.472 807.505 739.043 806.96 737.947C806.58 737.186 804.995 735.915 804.329 735.225C801.132 731.916 796.809 728.425 794.146 724.75C794.13 724.727 793.512 723.725 793.537 723.5C793.572 723.192 794.147 722.162 794.389 721.889C794.817 721.407 795.534 721.001 796.056 720.656C798.591 720.922 804.469 728.707 806.251 730.919L807.139 732.04C807.224 726.931 806.261 718.92 807.755 714.25C809.304 713.508 809.512 713.798 811.109 714.25C811.416 714.583 811.87 714.826 812.029 715.25C812.331 716.053 812.104 718.419 812.117 719.342L812.239 731.366L821.818 722.357C823.234 720.99 824.73 718.945 826.75 718.661C828.084 719.306 828.301 719.54 829.17 720.75C829.147 721.167 829.285 721.626 829.101 722C828.68 722.853 826.879 724.308 826.163 725.013L815.076 735.19C814.349 735.863 812.597 737.23 812.209 738.113C811.628 739.432 812.223 745.051 812.227 746.747L812.125 784.698L811.973 849.692L806.782 849.673L806.962 784.716Z"/>
	<path fill="#157F3A" d="M812.125 784.698C823.783 782.934 831.262 778.597 840.19 771.04L840.039 849.527L811.973 849.692L812.125 784.698Z"/>
	<path fill="#157F3A" d="M770.579 766.953L771.531 766.898C781.397 777.238 792.299 784.278 806.962 784.716L806.782 849.673C797.061 848.876 786.736 849.577 776.946 849.605C773.254 849.615 767.616 850.389 764.309 848.741L766.658 846.601C768.893 844.409 769.936 841.761 770.351 838.703C771.308 831.651 770.525 823.347 770.537 816.147L770.579 766.953Z"/>
	<path fill="#28A042" d="M849.001 697.028C851.232 691.065 854.354 686.703 860.259 683.867C865.02 681.58 870.541 681.478 875.449 683.386C881.251 685.642 885.782 690.55 888.138 696.265C890.947 703.079 891.209 710.665 888.397 717.534C886.028 723.32 881.847 727.571 876.073 729.973C874.256 730.729 872.442 731.235 870.5 731.541C882.003 736.626 890.264 744.501 895.008 756.378C896.415 759.899 897.148 763.602 897.154 767.392L897.087 849.483L872.55 849.507L868.135 849.532L840.039 849.527L840.19 771.04C846.875 763.622 851.255 755.971 854.245 746.403C859.505 729.574 856.916 712.439 849.001 697.028Z"/>
	<path fill="#704326" d="M868.135 849.532L868.379 780.499L868.434 762.195C868.445 759.93 867.993 756.294 868.901 754.25C870.232 753.873 870.414 753.915 871.75 754.304C873.258 757.194 872.537 839.919 872.55 849.507L868.135 849.532Z"/>
	<path fill="#F54377" d="M573.558 339.121C572.622 328.945 572.866 318.584 574.235 308.458C580.028 265.623 601.113 227.379 635.74 201.201C666.17 178.196 704.701 168.242 742.468 173.758C779.094 179.107 816.878 199.007 839.133 229.047C847.012 236.814 853.764 246.918 859.021 256.58C871.65 279.791 877.632 303.327 877.921 329.75C878.353 369.304 863.101 408.821 835.232 436.997C816.258 456.181 795.557 468.801 769.859 477.373C759.224 480.792 747.508 482.671 736.395 483.679C719.112 486.34 698.963 483.42 682.154 479.09C650.356 470.9 623.327 451.747 603.584 425.743C599.01 419.719 595.158 413.278 591.32 406.777C586.531 396.287 582.36 386.454 578.93 375.421C576.165 363.589 573.453 351.323 573.558 339.121Z"/>
	<path fill="#C2194E" d="M803.186 382.675L813.487 393.357L788.484 419.836C786.081 417.056 781.045 410.009 777.574 408.844L803.186 382.675Z"/>
	<path fill="#C2194E" d="M667.056 408.385L720.847 354.837L732.491 366.101L679.217 419.996C675.436 416.159 671.741 411.919 667.413 408.748L667.056 408.385Z"/>
	<path fill="#FE80A8" d="M573.558 339.121C572.622 328.945 572.866 318.584 574.235 308.458C580.028 265.623 601.113 227.379 635.74 201.201C666.17 178.196 704.701 168.242 742.468 173.758C779.094 179.107 816.878 199.007 839.133 229.047L850.31 248.926L849.542 249.232C817.71 215.421 778.268 189.81 730.5 188.527C694.757 187.567 657.265 200.163 631.193 225.079C624.775 231.212 618.455 237.649 613.162 244.797C597.288 266.234 586.062 296.602 585.501 323.376C584.856 354.217 591.934 381.591 608.057 407.965C613.204 416.385 618.891 424.638 625.75 431.758L628.193 434.224L627.837 434.697C622.731 430.941 618.141 425.96 613.852 421.304C598.598 404.743 585.502 384.749 578.75 363.083C577.127 357.877 575.784 352.345 574.877 346.967C574.527 344.895 574.677 341.9 573.987 340L573.558 339.121Z"/>
	<path fill="#C2194E" d="M839.133 229.047C847.012 236.814 853.764 246.918 859.021 256.58C871.65 279.791 877.632 303.327 877.921 329.75C878.353 369.304 863.101 408.821 835.232 436.997C816.258 456.181 795.557 468.801 769.859 477.373C759.224 480.792 747.508 482.671 736.395 483.679C719.112 486.34 698.963 483.42 682.154 479.09C650.356 470.9 623.327 451.747 603.584 425.743C599.01 419.719 595.158 413.278 591.32 406.777C586.531 396.287 582.36 386.454 578.93 375.421C576.165 363.589 573.453 351.323 573.558 339.121L573.987 340C574.677 341.9 574.527 344.895 574.877 346.967C575.784 352.345 577.127 357.877 578.75 363.083C585.502 384.749 598.598 404.743 613.852 421.304C618.141 425.96 622.731 430.941 627.837 434.697C628.396 435.498 629.722 436.266 630.516 436.882C632.019 436.232 634.313 438.469 635.567 439.399C651.905 451.52 669.611 459.785 689.654 463.658C726.751 470.827 768.164 461.836 799.357 440.645C831.829 418.585 855.524 384.569 862.839 345.827C867.897 319.042 866.718 293.073 858.193 267.091C856.202 261.022 853.905 254.195 850.31 248.926L839.133 229.047Z"/>
	<path fill="#FDF9E7" d="M667.056 408.385L666.248 408.475L640.054 382.189L694.838 327.766L641.489 274.375L667.981 248.111L721.16 301.357C725.995 297.395 730.375 292.375 734.806 287.947L761.595 261.32C766.686 256.17 771.503 250.534 776.923 245.746L803.288 272.511L814.123 283.379L759.162 339.143L803.186 382.675L777.574 408.844L777.203 408.857C760.915 396.174 747.521 380.141 732.491 366.101L720.847 354.837L667.056 408.385Z"/>
	<path fill="#C2194E" d="M803.288 272.511L814.123 283.379L759.162 339.143L748.136 327.911L803.288 272.511Z"/>
	<path fill="#FDF9E7" d="M578.93 375.421C582.36 386.454 586.531 396.287 591.32 406.777C595.158 413.278 599.01 419.719 603.584 425.743C623.327 451.747 650.356 470.9 682.154 479.09C698.963 483.42 719.112 486.34 736.395 483.679C747.508 482.671 759.224 480.792 769.859 477.373L770.081 537.459L770.473 690.461L770.579 766.953L770.537 816.147C770.525 823.347 771.308 831.651 770.351 838.703C769.936 841.761 768.893 844.409 766.658 846.601L764.309 848.741L761.5 849.979C759.312 850.768 756.711 850.522 754.405 850.532L740.869 850.538L700.215 850.616L464.341 850.638L336.287 850.843L269 850.886C266.114 850.832 264.057 850.062 261.517 848.825C258.222 850.148 252.765 849.482 249.13 849.495L221.526 849.529L221.569 787.082L222.338 786.869C220.971 784.559 221.9 777.472 221.861 774.557L221.453 743.522C221.393 737.318 221.818 730.568 220.871 724.463L220.686 724.485C218.343 724.967 217.021 724.405 214.848 723.585L214.755 722.901L176.046 691.393L179.895 685.904C185.186 678.701 192.763 673.273 200.587 669.149C211.948 664.757 221.477 663.633 233.46 666.09L233.462 630.923L241.769 630.987C244.309 630.963 252.562 630.072 254.319 631.256L254.679 632.404L255.368 395.724L255.433 392.786C255.651 387.645 257.664 383.138 261.578 379.741C264.237 377.432 267.308 375.765 270.854 375.465C275.644 375.059 280.667 375.325 285.477 375.321L312.949 375.291L401.268 375.115L517.695 375.089C537.983 375.104 558.695 374.22 578.93 375.421Z"/>
	<path fill="#10B9B6" d="M241.769 630.987C244.309 630.963 252.562 630.072 254.319 631.256L254.679 632.404L254.475 678.561C247.424 673.939 242.081 668.105 233.46 666.09L233.462 630.923L241.769 630.987Z"/>
	<path fill="#157F3A" d="M222.338 786.869C230.799 785.594 238.306 783.189 245.5 778.493C248.707 776.399 251.368 773.45 254.077 770.753L253.936 816.675C253.94 823.672 253.175 831.673 254.424 838.498C254.959 841.424 256.516 844.276 258.617 846.381L261.517 848.825C258.222 850.148 252.765 849.482 249.13 849.495L221.526 849.529L221.569 787.082L222.338 786.869Z"/>
	<path fill="#66C132" d="M200.587 669.149C211.948 664.757 221.477 663.633 233.46 666.09C242.081 668.105 247.424 673.939 254.475 678.561L254.332 738.807L254.289 756.878C254.279 760.029 254.517 763.429 254.095 766.547L254.077 770.753C251.368 773.45 248.707 776.399 245.5 778.493C238.306 783.189 230.799 785.594 222.338 786.869C220.971 784.559 221.9 777.472 221.861 774.557L221.453 743.522C221.393 737.318 221.818 730.568 220.871 724.463L220.686 724.485C218.343 724.967 217.021 724.405 214.848 723.585L214.755 722.901L176.046 691.393L179.895 685.904C185.186 678.701 192.763 673.273 200.587 669.149Z"/>
	<path fill="#28A042" d="M214.755 722.901L214.808 722.323C215.732 711.313 215.008 699.724 215.022 688.653C215.025 685.793 214.307 679.611 215.535 677.25L217.75 675.481C218.905 676.179 219.369 677.238 219.697 678.532C221.255 684.687 220.604 692.048 220.662 698.419L220.993 723.668L220.871 724.463L220.686 724.485C218.343 724.967 217.021 724.405 214.848 723.585L214.755 722.901Z"/>
	<path fill="#54A230" d="M220.993 723.668L254.012 697.904L253.877 745.117C253.876 751.914 253.068 759.875 254.095 766.547L254.077 770.753C251.368 773.45 248.707 776.399 245.5 778.493C238.306 783.189 230.799 785.594 222.338 786.869C220.971 784.559 221.9 777.472 221.861 774.557L221.453 743.522C221.393 737.318 221.818 730.568 220.871 724.463L220.993 723.668Z"/>
	<path fill="#33659C" d="M729.788 604.037L736.517 611.305L736.682 707.013L736.615 776.023C722.268 774.74 707.715 774.371 694 769.489C689 767.709 684.424 765.117 679.866 762.431C667.704 754.604 658.139 744.634 647.202 735.362C638.86 726.909 628.153 719.861 618.304 713.257L636.17 696.479C641.71 692.535 646.769 686.814 651.633 682.052L681.36 652.449L729.788 604.037Z"/>
	<path fill="#363974" d="M736.682 707.013L736.615 776.023C722.268 774.74 707.715 774.371 694 769.489C689 767.709 684.424 765.117 679.866 762.431L736.682 707.013Z"/>
	<path fill="#F79946" d="M286.54 803.89C287.41 804.381 289.03 804.613 290.032 804.877C293.618 805.822 297.182 806.627 300.846 807.221C308.885 808.525 317.062 808.478 325 806.596C339.661 803.119 354.733 793.722 367.407 785.851C376.75 780.049 384.812 774.769 395.911 773.037C412.585 770.434 426.961 775.837 442.622 780.536C456.41 784.672 473.479 788.313 487.8 785.378C505.503 781.751 517.386 770.313 532.097 760.999C540.982 755.374 550.024 750.569 559.48 745.973C566.807 742.411 574.279 738.885 582.077 736.458C591.245 733.604 601.088 731.319 610.726 731.11C618.343 730.945 626.184 732.052 633.678 733.329C637.633 734.003 643.32 736.129 647.202 735.362C658.139 744.634 667.704 754.604 679.866 762.431C684.424 765.117 689 767.709 694 769.489C707.715 774.371 722.268 774.74 736.615 776.023L736.67 817.511L383.798 817.637L306.499 817.681L292.065 817.74C290.629 817.753 287.723 818.136 286.482 817.526L286.54 803.89Z"/>
	<path fill="#FDF9E7" d="M562.969 751.526L593.442 751.357L593.382 769.648L562.963 769.791L562.969 751.526Z"/>
	<path fill="#FBB95D" d="M475.362 672.239C497.356 669.355 517.558 671.308 539.03 676.619C566.907 684.757 594.084 697.185 618.304 713.257C628.153 719.861 638.86 726.909 647.202 735.362C643.32 736.129 637.633 734.003 633.678 733.329C626.184 732.052 618.343 730.945 610.726 731.11C601.088 731.319 591.245 733.604 582.077 736.458C574.279 738.885 566.807 742.411 559.48 745.973C550.024 750.569 540.982 755.374 532.097 760.999C517.386 770.313 505.503 781.751 487.8 785.378C473.479 788.313 456.41 784.672 442.622 780.536C426.961 775.837 412.585 770.434 395.911 773.037C384.812 774.769 376.75 780.049 367.407 785.851C354.733 793.722 339.661 803.119 325 806.596C317.062 808.478 308.885 808.525 300.846 807.221C297.182 806.627 293.618 805.822 290.032 804.877C289.03 804.613 287.41 804.381 286.54 803.89L286.542 738.056L338.168 711.176C343.544 720.895 350.013 726.481 360.742 729.473L361.99 729.772C365.901 730 369.625 730.08 373.529 729.715C378.4 728.832 383.106 726.47 387.132 723.654C395.954 717.483 400.05 708.849 401.896 698.554L435.427 683.289C448.386 677.903 461.542 674.535 475.362 672.239Z"/>
	<path fill="#B82320" d="M361.99 729.772C365.901 730 369.625 730.08 373.529 729.715L373.573 754.242C373.573 756.7 374.126 761.273 372.793 763.259C371.834 764.688 370.108 765.625 368.423 765.849C366.7 766.079 364.517 765.683 363.25 764.41C362.581 763.739 362.237 762.952 362.048 762.04C361.491 759.36 361.961 755.799 361.96 752.993L361.99 729.772Z"/>
	<path fill="#FDF9E7" d="M432.226 722.139C437.585 721.465 443.793 721.993 448.75 724.245C451.918 725.684 455.119 727.801 456.2 731.302C456.713 732.964 456.404 735.266 455.464 736.731C452.575 741.232 446.902 743.254 441.948 744.383C435.462 745.2 429.604 744.801 423.616 741.903C420.913 740.595 417.387 737.845 416.596 734.75C416.084 732.747 416.405 730.522 417.585 728.83C420.638 724.455 427.288 723.059 432.226 722.139Z"/>
	<path fill="#33659C" d="M286.738 535.573L341.829 480.443L446.341 583.968L478.788 615.566L513.877 650.712L530.841 667.118C533.42 669.655 536.821 672.413 538.481 675.624L538.824 676.239L539.03 676.619C517.558 671.308 497.356 669.355 475.362 672.239C461.542 674.535 448.386 677.903 435.427 683.289L401.896 698.554C400.05 708.849 395.954 717.483 387.132 723.654C383.106 726.47 378.4 728.832 373.529 729.715C369.625 730.08 365.901 730 361.99 729.772L360.742 729.473C350.013 726.481 343.544 720.895 338.168 711.176L286.542 738.056L286.618 661.771L286.738 535.573Z"/>
	<path fill="#363974" d="M286.618 661.771C286.79 660.842 286.868 659.056 287.268 658.269C287.551 657.712 289.08 656.634 289.628 656.109L295.62 650.113L346.322 600.757C353.815 593.964 361.593 586.589 370 580.93C372.19 579.456 374.555 578.346 377.25 578.94C379.057 579.338 380.239 580.164 381.619 581.37L400.736 599.715L434.387 632.484L461.25 658.336C466.004 662.905 470.948 667.327 475.362 672.239C461.542 674.535 448.386 677.903 435.427 683.289L401.896 698.554C400.05 708.849 395.954 717.483 387.132 723.654C383.106 726.47 378.4 728.832 373.529 729.715C369.625 730.08 365.901 730 361.99 729.772L360.742 729.473C350.013 726.481 343.544 720.895 338.168 711.176L286.542 738.056L286.618 661.771Z"/>
	<path fill="#66C132" d="M334.945 695.936C334.56 684.946 336.971 675.124 344.461 666.807C349.483 661.232 356.887 657.331 364.449 657.012C374.954 656.568 382.927 659.585 390.628 666.609C397.821 673.226 402.035 681.679 402.372 691.533C402.452 693.86 402.137 696.24 401.896 698.554C400.05 708.849 395.954 717.483 387.132 723.654C383.106 726.47 378.4 728.832 373.529 729.715C369.625 730.08 365.901 730 361.99 729.772L360.742 729.473C350.013 726.481 343.544 720.895 338.168 711.176C336.169 706.102 335.03 701.397 334.945 695.936Z"/>
	<path fill="#BFF35D" d="M362.254 667.543C365.11 667.42 368.106 667.175 370.82 668.216L371.5 668.499C374.534 669.736 376.94 672.229 378.286 675.206C379.743 678.426 379.966 682.319 378.744 685.652L378.514 686.25L378.287 686.867C376.7 690.934 373.035 693.03 369.281 694.756C366.01 695.276 362.833 695.367 359.736 694.075C356.639 692.784 354.041 689.999 352.917 686.827C351.51 682.854 351.777 677.733 353.657 673.96C355.587 670.086 358.399 668.934 362.254 667.543Z"/>
	<path fill="#54A230" d="M390.628 666.609C397.821 673.226 402.035 681.679 402.372 691.533C402.452 693.86 402.137 696.24 401.896 698.554C400.05 708.849 395.954 717.483 387.132 723.654C383.106 726.47 378.4 728.832 373.529 729.715C369.625 730.08 365.901 730 361.99 729.772L360.742 729.473C350.013 726.481 343.544 720.895 338.168 711.176C336.169 706.102 335.03 701.397 334.945 695.936C336.391 697.631 336.586 699.409 337.419 701.413C339.7 706.899 343.208 711.872 347.965 715.508C353.876 720.025 362.403 723.166 369.888 722.179L370.75 722.054L375.844 721.074C383.103 719.08 389.339 713.07 392.973 706.634C398.386 697.047 399.703 685.174 394.925 675.088C393.794 672.702 391.338 669.944 390.792 667.493L390.628 666.609Z"/>
	<path fill="#75D8F9" d="M286.738 535.573L286.463 406.875L591.32 406.777C595.158 413.278 599.01 419.719 603.584 425.743C623.327 451.747 650.356 470.9 682.154 479.09C698.963 483.42 719.112 486.34 736.395 483.679L736.517 611.305L729.788 604.037L681.36 652.449L651.633 682.052C646.769 686.814 641.71 692.535 636.17 696.479L618.304 713.257C594.084 697.185 566.907 684.757 539.03 676.619L538.824 676.239L538.481 675.624C536.821 672.413 533.42 669.655 530.841 667.118L513.877 650.712L478.788 615.566L446.341 583.968L341.829 480.443L286.738 535.573Z"/>
	<path fill="#363974" d="M446.341 583.968L469.424 560.31C473.603 556.062 478.924 551.496 482.223 546.551L543.596 606.111L555.011 617.222C556.732 618.926 558.576 621.221 560.564 622.576L636.17 696.479L618.304 713.257C594.084 697.185 566.907 684.757 539.03 676.619L538.824 676.239L538.481 675.624C536.821 672.413 533.42 669.655 530.841 667.118L513.877 650.712L478.788 615.566L446.341 583.968Z"/>
	<path fill="#CC4B9E" d="M560.564 622.576L653.908 529.201L729.788 604.037L681.36 652.449L651.633 682.052C646.769 686.814 641.71 692.535 636.17 696.479L560.564 622.576Z"/>
</svg>
