<?xml version="1.0" encoding="utf-8" ?>
<svg xmlns="http://www.w3.org/2000/svg" xmlns:xlink="http://www.w3.org/1999/xlink" width="1024" height="1024">
	<path fill="white" d="M-0 -0L1024 0L1024 1024L-0 1024L0 -0Z"/>
	<path fill="#1F4D2E" d="M88.6068 54.6993L132.232 54.539L216.473 54.5179L463.27 54.5617L779.99 54.514L886.03 54.5499L940.501 54.6872C945.41 54.8051 949.918 55.2702 954.393 57.4997C961.94 61.2592 966.67 67.6728 969.375 75.5C969.959 77.1924 970.32 78.74 970.459 80.5251C971.478 93.6521 970.82 107.363 970.853 120.556L970.886 197.246L970.887 434.125L970.943 787.522L970.916 892.412L970.888 948.628C970.596 955.787 967.981 962.451 963.272 967.865C957.384 974.634 949.944 977.257 941.226 977.795L755.066 977.649L267.807 977.825L147.494 977.752L107.96 977.844C99.9503 977.858 89.4032 979.085 81.7812 976.784L81 976.534C77.3951 975.422 73.9886 973.788 71 971.463C65.4056 967.111 61.4815 960.341 60.7375 953.265C60.2797 948.912 60.5245 944.343 60.5225 939.96L60.5225 916.837L60.5259 842.203L60.4556 601.595L60.4003 248.488L60.4248 137.148L60.4154 100.259L60.5001 80.5C60.8033 74.7902 63.744 68.9488 67.3933 64.6326C73.0527 57.9388 80.075 55.4635 88.6068 54.6993Z"/>
	<path fill="#1ABB5F" d="M826.51 759.279C828.086 758.589 828.766 758.437 830.474 758.635C830.941 759.727 830.834 759.519 830.415 760.552C829.753 762.184 828.769 763.515 827.735 764.926C826.814 763.388 826.763 761.042 826.51 759.279Z"/>
	<path fill="#AAD26F" d="M76.0437 686.461C77.9256 686.472 84.0753 685.922 85.3984 686.75L81.2534 690.585L76.0823 695.986L76.0437 686.461Z"/>
	<path fill="#1ABB5F" d="M343.056 775.548C338.089 773.608 330.507 769.437 328.18 764.453L328.5 763.778C333.79 765.591 338.885 769.937 343.535 773.033L343.056 775.548Z"/>
	<path fill="#008040" d="M284.96 774.156L285.758 773.968C287.644 773.453 289.546 771.781 291.133 770.646C294.957 767.912 298.732 764.948 302.75 762.508L303.347 763L303.32 765.843C301.149 767.538 298.623 768.763 296.322 770.285C293.381 772.23 289.489 775.361 286.173 776.4L284.96 774.156Z"/>
	<path fill="#008040" d="M263.016 812.721C265.698 812.645 268.551 812.359 271.213 812.681C268.441 814.594 262.241 820.24 259.25 820.568L249.887 813.096L263.016 812.721Z"/>
	<path fill="#AAD26F" d="M297.385 619.828L305.224 619.407L305.266 628.383C303.064 629.797 300.992 630.97 298.565 631.98L292.597 630.214C292.917 627.024 293.965 623.29 295.039 620.25C295.724 620.244 296.232 620.222 296.893 620.008L297.385 619.828Z"/>
	<path fill="#FC0" d="M323.186 577.437L324.309 577.168C326.083 579.051 327.367 581.33 328.932 583.384C330.726 585.738 332.899 587.891 335.033 589.936C344.62 599.125 356.632 605.296 363.743 616.905L363.488 617.83L331.105 605.781C329.743 604.083 329.191 600.452 328.6 598.322L323.186 577.437Z"/>
	<path fill="#008040" d="M246.803 773.67C250.586 773.512 254.519 774.404 258.279 774.879C266.712 775.946 275.198 777.265 283.687 777.76L254.969 798.427C252.812 797.265 250.718 794.855 248.776 793.273C241.447 787.302 233.867 781.658 227.61 774.525C233.421 774.137 240.217 775.046 245.85 773.881L246.803 773.67Z"/>
	<path fill="#6BB359" d="M136.463 702.089L136.357 722.42C130.406 725.909 124.809 730.07 119.135 733.987L93.618 751.831L80.8705 761.098C79.8625 761.852 77.8228 763.888 76.75 764.202C76.4829 764.28 76.1943 764.234 75.9165 764.25L75.6165 761.625L75.5924 748.809L93.1521 735.193C94.7114 736.129 96.1811 738.751 97.3069 740.242C115.285 732.599 126.152 717.926 136.463 702.089Z"/>
	<path fill="#6BB359" d="M131.733 562.75L132.121 562.669C131.921 563.626 132.076 563.347 131.577 564.105C122.09 578.524 104.431 590.626 87.4718 594.326C81.8015 595.564 83.6836 607.926 79.75 611.032C78.0914 611.234 76.9735 611.791 75.6128 610.75L75.5829 595.375L75.699 569.918L97.8812 572.597L93.016 582.741L109.229 575.111C117.28 571.581 125.073 568.664 131.733 562.75Z"/>
	<path fill="#6BB359" d="M91.688 629.73C92.7129 629.729 92.7151 629.536 93.5341 630.25L87.8318 651.294C102.23 645.568 116.788 639.352 129.861 631.006C128.137 634.659 126.09 639.124 123.202 642.004C121.212 643.99 118.388 645.451 115.999 646.907L75.7295 670.426L75.4902 629.964L91.688 629.73Z"/>
	<path fill="#008040" d="M135.071 795.25L136.022 795.523C136.984 803.894 136.124 813.113 136.028 821.571L77.25 867.809L76.4363 868.217C75.215 866.991 75.8994 851.243 75.8868 848.332C90.6941 839.834 106.286 830.346 117.25 816.986C123.207 809.727 128.098 801.626 135.071 795.25Z"/>
	<path fill="#AAD26F" d="M950.271 543.796L955.25 543.5C955.765 544.53 955.511 544.907 955.315 545.964L948.012 581.699C943.345 608.648 940.59 636.175 939.368 663.5L938.5 664.03L937.649 663.25L937.51 655.987C937.557 618.567 934.08 582.397 924.021 546.233L950.271 543.796Z"/>
	<path fill="#008040" d="M134.621 901.25C135.727 900.924 135.616 900.992 136.626 901.25C137.928 906.262 136.985 913.638 136.985 918.882L136.954 961.541L101.612 961.525C96.3816 961.516 90.4335 962.074 85.2748 961.414C83.855 961.232 82.5164 960.463 81.273 959.8C78.9615 958.245 77.5837 956.825 75.9849 954.523C79.2412 951.742 83.6193 949.654 87.111 946.995C95.0557 940.944 102.762 934.086 110.061 927.253C114.499 923.099 118.846 918.734 122.862 914.172C126.582 909.947 130.116 904.624 134.621 901.25Z"/>
	<path fill="#008040" d="M174.59 796.75C178.04 796.328 180.968 801.144 183.023 803.62C188.484 810.194 193.662 816.66 199.846 822.595C209.988 832.33 222.503 840.658 234.637 847.671C240.543 851.084 245.951 854.32 252.556 856.224L239.112 835.218L279.932 837.547C276.809 835.339 273.257 833.215 270.405 830.683L281 828.512C282.906 828.128 285.146 827.913 286.936 827.137C288.771 826.341 290.756 824.118 292.245 822.75L304.423 811.507L304.485 811.942C304.779 814.972 304.928 825.408 303.25 827.587C298.67 831.673 292.264 834.852 287.072 838.206C274.807 846.132 262.62 853.92 251.068 862.879L268.984 863.075C263.841 869.145 256.37 874.415 250.112 879.379L174.34 821.498C173.712 818.151 174.128 814.071 174.127 810.641C174.127 806.305 173.527 800.929 174.59 796.75Z"/>
	<path fill="#6BB359" d="M246.803 773.67L174.507 724.806L174.406 709.633C179.955 716.652 185.714 723.531 192.374 729.539C198.451 735.02 205.312 739.62 212.099 744.164C213.019 743.463 214.995 736.286 215.753 734.541C229.021 740.991 242.28 746.833 256.504 750.895L233.629 723.25C236.219 722.459 240.943 723.185 243.732 723.245L270.901 723.758L271 723.072L264.334 718.517L278.955 717.292C277.764 718.618 274.22 721.854 273.927 723.424L274.113 723.736C278.898 723.197 288.663 721.575 292.837 723.97C295.826 720.083 299.251 716.348 303.294 713.53L303.26 720.307L294.967 726.121L255.96 750.272L275.163 760.442C273.674 762.718 272.124 764.653 270.181 766.572C269.506 767.239 267.118 769.103 266.986 769.939C272.486 771.847 279.158 773.655 284.96 774.156L286.173 776.4L283.687 777.76C275.198 777.265 266.712 775.946 258.279 774.879C254.519 774.404 250.586 773.512 246.803 773.67Z"/>
	<path fill="#FF8C19" d="M955.126 448.25L955.655 448.197C956.951 451.199 955.973 467.9 955.96 472.125L956.027 532.401L920.8 535.683L916.524 522.766C913.278 513.772 908.366 505.592 903.217 497.583C922.055 483.27 939.729 466.179 955.126 448.25Z"/>
	<path fill="#FF8C19" d="M75.9168 542.646L75.5175 448.229C82.2552 460.192 90.243 473.438 100.214 482.87C104.483 486.91 109.013 489.913 114.305 492.402C114.444 492.468 116.254 493.265 116.289 493.334C116.634 494.016 114.494 502.239 114.147 503.618L138.915 501.084L137.264 512.218L76.6739 543.223C79.4573 545.569 83.335 546.796 86.737 547.974C93.5892 550.347 100.378 552.18 107.435 553.797L101.631 563.952L75.9272 559.99L75.9168 542.646Z"/>
	<path fill="#FF8C19" d="M842.569 434.975L899.557 488.75C898.94 490.004 898.157 490.228 897 490.94L896.114 490.944C891.603 490.983 889.024 491.984 885.82 495.325C877.837 503.648 872.903 517.471 869.266 528.207C868.886 529.327 866.153 539.247 865.728 539.558C865.059 540.046 860.358 540.248 859.298 540.385L836.648 543.682L834.491 538.873L832.606 535.26C827.287 523.136 851.605 502.302 855.696 491.312C856.221 489.899 856.426 487.89 855.906 486.436C854.684 483.01 851.855 480.215 849.458 477.567C844.946 472.585 839.586 467.348 836.569 461.314C836.316 460.809 835.845 460.03 835.7 459.513C834.631 455.704 841.071 439.421 842.569 434.975Z"/>
	<path fill="#6BB359" d="M704.579 435.25L706.25 434.964C712.175 438.323 717.881 444.894 723.004 449.487L757.271 480.022L729.75 504.22C727.575 506.108 723.381 510.816 720.75 511.589L719.622 510.172C717.382 507.354 714.85 504.205 711.97 502.031C705.546 497.184 697.116 496.325 689.373 495.506C685.889 495.138 682.134 494.967 678.75 494.036C670.346 491.723 670.453 484.067 668.096 477.065C667.221 474.465 665.814 472.049 664.496 469.654L688 449.509C693.288 444.863 698.683 439.076 704.579 435.25Z"/>
	<path fill="#FC0" d="M343.747 400.473C353.962 401.355 364.451 400.954 374.71 401.086L435.827 401.454L475.671 401.236C481.86 401.119 488.569 401.414 494.674 400.414L475.994 418.238C466.41 427.44 457.679 435.532 445.137 440.609C438.846 443.155 432.173 444.542 425.418 445.063C421.898 445.334 418.273 445.239 414.812 445.994C409.072 447.247 404.161 449.679 399.394 453.057L343.747 400.473Z"/>
	<path fill="#008040" d="M858.018 755.978C867.499 756.24 877.832 754.567 887.263 753.435C910 750.705 932.312 746.827 955.246 745.822L955.028 794.559L888.826 799.896L871.334 802.162C870.271 802.311 866.957 803.159 866.05 802.9C865.197 802.658 863.81 801.574 863.027 801.079C859.494 798.843 856.295 796.121 853.17 793.359C858.802 793.593 863.672 793.067 869.194 792.195C865.637 790.673 861.949 789.198 858.75 786.989C854.871 784.311 851.502 780.8 848.225 777.438C853.476 777.489 859.099 777.927 864.118 776.138C861.961 775.376 859.345 774.792 857.351 773.674C852.594 771.007 848.171 764.72 845.889 759.939L845.546 759.218C850.209 758.864 854.174 758.925 858.018 755.978Z"/>
	<path fill="#FC0" d="M170.67 402.298L278.413 401.706L224.603 453.781C218.126 459.975 212.017 467.326 205.135 472.989C202.896 474.832 200.62 476.161 197.75 476.673C195.192 476.194 193.049 474.62 190.899 473.227L180.684 466.6C175.435 463.274 169.542 460.192 164.686 456.353L162.786 448.174L183.101 450.227L170.67 402.298Z"/>
	<path fill="#008040" d="M300.892 873.75C301.955 873.436 301.439 873.42 302.441 873.75C301.301 883.816 302.005 894.652 302.009 904.795L302.053 961.434L174.13 961.525L173.969 901.745C178.32 905.995 181.745 911.151 185.873 915.618C193.268 923.621 201.748 930.354 210.357 936.984C223.627 946.245 236.878 952.947 252.169 958.282L237.516 935.181L296.883 946.016C285.953 938.955 276.11 929.061 266.773 920.044C260.396 913.885 253.671 907.791 248.248 900.758L279.433 901.947L272.281 896.756C278.597 892.962 284.611 888.955 290.052 883.951C293.558 880.726 296.654 876.841 300.499 874.028L300.892 873.75Z"/>
	<path fill="#6BB359" d="M292.597 630.214L288.026 655.747L304.407 653.003C304.963 657.182 305.479 659.584 302.756 663.143C299.039 667.999 290.319 669.992 284.523 670.747C284.626 673.987 283.584 680.215 284.75 683.041L287.75 682.181C288.741 684.722 290.139 686.817 291.649 689.061C288.818 692.167 285.358 694.808 282.189 697.569L259.884 715.468C248.485 705.35 232.755 698.468 223.702 686.022L261.229 686.552C253.804 680.161 243.025 676.152 234.268 671.805L200.657 653.234C192.527 648.453 183.859 643.734 176.855 637.363C176.48 634.966 176.742 632.488 176.852 630.072C178.114 630.274 179.536 631.535 180.637 632.262C183.408 634.092 186.189 636.089 189.157 637.584C198.752 642.415 209.338 645.239 219.056 650.022C219.077 648.381 217.055 645.156 216.353 643.578L210.169 628.877L263.537 629.329C254.423 621.048 240.798 615.543 229.186 611.65C230.448 606.257 230.692 601.194 230.936 595.692C226.677 595.817 222.794 595.376 218.75 593.956C201.612 587.935 183.287 579.213 175.173 562.087C177.034 564.43 179.803 568.587 182.389 570.095C184.263 571.187 189.149 571.437 191.523 571.952L209.794 576.454L266.676 592.422L300.357 603.014C298.89 608.072 296.187 614.255 295.75 619.449L297.385 619.828L296.893 620.008C296.232 620.222 295.724 620.244 295.039 620.25C293.965 623.29 292.917 627.024 292.597 630.214Z"/>
	<path fill="#FC0" d="M836.648 543.682L764.839 555.212C758.711 545.861 751.085 540.062 741.263 534.861C737.886 533.073 734.083 531.454 731.154 528.989C728.339 526.62 726.49 523.675 724.745 520.498C734.622 512.845 743.645 504.23 752.982 495.945L806.517 448.226L819.75 436.326C822.221 433.986 824.585 431.141 827.275 429.089C829.026 427.753 830.859 427.297 833 426.983C835.989 427.873 840.167 432.788 842.569 434.975C841.071 439.421 834.631 455.704 835.7 459.513C835.845 460.03 836.316 460.809 836.569 461.314C839.586 467.348 844.946 472.585 849.458 477.567C851.855 480.215 854.684 483.01 855.906 486.436C856.426 487.89 856.221 489.899 855.696 491.312C851.605 502.302 827.287 523.136 832.606 535.26L834.491 538.873L836.648 543.682Z"/>
	<path fill="#FC0" d="M846.961 838.356C839.726 839.574 832.545 841.672 825.352 843.179C749.616 859.041 674.059 885.537 605.292 921.021L556.918 948.615L544.328 956.868C542.504 958.163 539.436 961.362 537.616 962.015C536.003 962.593 531.166 961.927 529.133 961.903L499.157 961.699L422.954 961.589L384.676 962.081C391.624 957.651 399.435 954.41 406.878 950.901L449.704 931.752C514.511 904.642 580.759 883.733 648.565 865.546L783.801 833.319L900.363 812.072L939.92 806.779C944.976 806.238 949.891 805.343 954.995 805.508L955.109 813.278L847.126 838.142L846.961 838.356Z"/>
	<path fill="#FC0" d="M315.136 539.372L302.836 594.443L209.031 567.101C206.051 563.657 203.937 557.539 201.904 553.33C212.687 552.061 223.118 550.113 232.835 545.048L170.386 512.99C168.663 509.436 168.183 504.127 167.353 500.197C169.999 500.382 172.816 501.346 175.404 501.972L192.431 506.78L186.176 492.774C194.084 490.682 202.241 487.781 209.039 483.143C220.102 475.595 229.677 464.787 239.271 455.449L285.625 410.209L299.505 396.562C301.77 394.349 304.096 391.614 306.713 389.86C308.308 388.79 310.604 388.367 312.5 388.519C316.317 388.824 319.77 392.88 322.356 395.359C325.751 398.614 329.343 401.712 332.265 405.415C334.122 411.806 333.566 422.09 330.296 427.8L328.571 430.25L328.168 430.797C324.314 435.901 318.719 440.12 313.953 444.336C311.75 446.285 309.254 448.246 307.604 450.693C306.657 452.097 306.088 453.671 306.217 455.393C306.457 458.607 309.656 461.062 312.032 462.851C317.371 466.87 323.607 470.062 329.706 472.756C332.693 474.075 336.279 475.125 338.961 476.974C340.603 478.106 342.12 479.561 342.346 481.646C342.566 483.687 341.418 485.808 340.396 487.489C336.872 493.283 332.376 498.436 328.519 504.007C326.563 506.832 324.846 509.924 323.319 513C318.976 521.754 317.106 529.928 315.136 539.372Z"/>
	<path fill="#FC0" d="M537.799 375.009C540.03 386.303 539.383 399.024 539.455 410.534L539.873 455.406L539.994 467.424C540.005 468.683 539.74 470.894 540.093 472.064C540.551 473.583 545.071 476.485 546.508 477.639L562.428 490.963L574.37 501.135C578.675 504.904 583.415 508.674 585.334 514.283C587.094 519.428 585.361 524.255 582.404 528.527C579.847 532.221 576.552 535.455 573.513 538.75L555.481 558.25C552.217 561.759 548.525 565.235 545.676 569.084C550.802 573.217 556.684 576.711 562.421 579.939C568.314 583.254 575.987 586.011 580.423 591.272C583.202 594.567 584.01 597.824 584.663 601.953L551.947 614.253L516.971 593.517C494.712 578.945 474.719 561.792 455.693 543.286C453.775 541.421 448.655 537.452 447.845 535.181C446.535 531.513 446.239 526.647 445.513 522.75L440.545 498.409C440.298 497.273 439.795 494.351 439.145 493.45C438.221 492.17 434.444 490.839 432.915 490.121C425.138 486.469 415.869 483.521 408.711 478.909C406.724 474.314 405.922 468.217 405.512 463.25C407.554 457.323 416.029 456.199 421.456 455.919C432.735 455.338 442.636 453.897 452.97 449.09C469.414 441.441 481.952 428.053 495.024 415.864L537.799 375.009Z"/>
	<path fill="#FF8C19" d="M537.799 375.009C539.815 373.489 541.279 372.673 543.87 373.031C545.92 373.315 547.707 374.639 549.212 375.982L567.739 394.018L592.927 417.579L643.894 465.725L651.691 473.194C653.23 474.59 655.237 476.053 656.37 477.809C662.29 486.991 658.872 499.833 672.106 503.441L688.905 507.635C693.65 508.675 701.442 508.951 705.43 511.446C708.09 513.111 709.897 516.351 711.462 519C714.598 524.308 717.429 530.628 721.527 535.239C726.654 541.008 735.122 544.173 741.687 548.106C746.066 550.729 750.112 553.818 753.878 557.261L693.22 569.17C656.287 577.741 620.175 588.718 584.663 601.953C584.01 597.824 583.202 594.567 580.423 591.272C575.987 586.011 568.314 583.254 562.421 579.939C556.684 576.711 550.802 573.217 545.676 569.084C548.525 565.235 552.217 561.759 555.481 558.25L573.513 538.75C576.552 535.455 579.847 532.221 582.404 528.527C585.361 524.255 587.094 519.428 585.334 514.283C583.415 508.674 578.675 504.904 574.37 501.135L562.428 490.963L546.508 477.639C545.071 476.485 540.551 473.583 540.093 472.064C539.74 470.894 540.005 468.683 539.994 467.424L539.873 455.406L539.455 410.534C539.383 399.024 540.03 386.303 537.799 375.009Z"/>
	<path fill="white" d="M164.946 376.348L165.219 375.794C168.92 368.407 175.251 362.527 183.25 360.068C191.817 357.434 200.218 359.264 207.892 363.44C208.45 359.497 208.5 355.798 209.666 351.925C212.491 342.536 219.071 334.988 227.826 330.587C237.854 325.546 247.392 326.123 257.809 329.587C256.446 323.482 255.8 317.803 256.43 311.551C257.832 297.639 265.531 283.976 276.401 275.213C289.314 264.802 303.68 261.068 320.091 262.903C334.812 266.196 348.031 274.866 356.226 287.681C364.196 300.145 366.032 312.346 364.267 326.864C372.621 327.175 379.922 329.667 385.721 335.935C391.414 342.089 392.859 349.435 392.533 357.552C392.391 361.076 390.819 364.42 389.54 367.664C401.398 361.781 412.833 358.89 425.868 363.256C433.974 365.972 441.083 371.776 444.888 379.488L447.145 384.97L447.841 384.803C461.743 381.648 474.995 386.954 487.084 393.316C490.137 394.922 493.555 397.461 496.736 398.571L494.674 400.414C488.569 401.414 481.86 401.119 475.671 401.236L435.827 401.454L374.71 401.086C364.451 400.954 353.962 401.355 343.747 400.473L332 389.022C325.78 382.982 320.7 376.968 311.266 376.967C308.276 376.967 304.973 377.74 302.344 379.176C299.516 380.722 296.948 383.592 294.61 385.804L278.413 401.706L170.67 402.298L164.946 376.348Z"/>
	<path fill="#6BB359" d="M477.396 804.33C528.885 776.098 583.705 755.47 639.526 737.657L771.487 702.019L835.223 688.75C866.274 683.448 898.238 679.773 929.698 677.89L955.231 676.475L955.246 745.822C932.312 746.827 910 750.705 887.263 753.435C877.832 754.567 867.499 756.24 858.018 755.978C856.547 752.58 852.237 751.077 849.731 748.45C847.604 746.221 845.856 743.444 844.268 740.816C848.558 741.595 852.309 741.778 856.654 741.393C853.409 738.453 843.587 729.813 843.168 725.485L843.25 724.488L843.953 724.461C846.464 724.334 848.088 723.942 850.25 722.611L850.714 721.75C849.05 717.941 846.089 714.42 843.707 711.005C841.398 707.694 839.521 704.251 837.652 700.683C836.522 703.697 835.257 706.557 833.473 709.25L826.762 718.637C826.347 719.21 825.043 720.655 824.86 721.25C824.753 721.597 825.102 721.935 825.223 722.277C827.757 723.952 831.009 724.046 833.975 724.256C830.386 731.09 825.711 735.809 820.25 741.185C823.727 741.798 828.506 741.625 831.981 741.098C829.206 745.413 826.895 748.606 822.761 751.671C821.549 752.569 819.35 753.797 818.42 754.917C818.21 755.169 818.021 756.28 817.956 756.584C816.086 757.762 811.145 757.144 808.834 757.295C800.363 757.85 791.957 759.209 783.61 760.704L708.5 775.862C645.551 787.612 582.137 797.205 518.298 802.405L489.006 804.445C485.41 804.581 480.894 805.051 477.396 804.33Z"/>
	<path fill="#FF8C19" d="M332.265 405.415L382.153 453.082L390.815 461.047C391.686 461.773 395.077 463.966 395.42 464.68C395.714 465.294 395.646 467.512 395.726 468.28C396.385 474.666 396.66 481.788 401.425 486.575C407.384 492.56 417.385 495.152 425.106 498.067C426.047 498.422 428.821 499.158 429.438 499.771C429.979 500.309 430.714 504.555 430.921 505.487L435.929 530.178C436.794 534.149 437.429 538.79 439.334 542.38C442.238 547.851 448.508 552.95 452.988 557.184C470.49 573.723 489.117 589.269 509.031 602.843L524.767 613.086C528.867 615.602 533.231 617.907 537.04 620.851L459.064 661.485L363.488 617.83L363.743 616.905C356.632 605.296 344.62 599.125 335.033 589.936C332.899 587.891 330.726 585.738 328.932 583.384C327.367 581.33 326.083 579.051 324.309 577.168L323.186 577.437C320.293 568.669 318.908 558.463 317.189 549.327C316.566 546.013 316.292 542.551 315.136 539.372C317.106 529.928 318.976 521.754 323.319 513C324.846 509.924 326.563 506.832 328.519 504.007C332.376 498.436 336.872 493.283 340.396 487.489C341.418 485.808 342.566 483.687 342.346 481.646C342.12 479.561 340.603 478.106 338.961 476.974C336.279 475.125 332.693 474.075 329.706 472.756C323.607 470.062 317.371 466.87 312.032 462.851C309.656 461.062 306.457 458.607 306.217 455.393C306.088 453.671 306.657 452.097 307.604 450.693C309.254 448.246 311.75 446.285 313.953 444.336C318.719 440.12 324.314 435.901 328.168 430.797L328.571 430.25L330.296 427.8C333.566 422.09 334.122 411.806 332.265 405.415Z"/>
	<path fill="#6BB359" d="M343.535 773.033L361.229 773.542L352.143 759.025L371.843 749.408L328.169 720.498C328.023 718.845 327.318 715.716 327.778 714.216L337.462 721.778C338.262 722.386 340.087 723.792 341.081 723.906C343.655 724.201 347.104 723.585 349.735 723.407L346.979 718.285L371.356 720.685L339.372 687.957L339.854 687.524C340.494 686.933 341.25 686.282 341.75 685.565C342.291 684.791 342.695 682.501 343.5 682.09C344.859 681.396 345.935 682.783 346.054 680.5L344.918 670.442C338.007 668.97 333.815 666.983 327.878 663.21L324.953 653.758L336.844 655.23C337.872 655.373 339.76 655.945 340.654 655.455L338.272 637.084C338.051 635.35 338.098 632.396 337.139 630.959L336.191 631.002C332.953 631.129 327.531 630.471 325.386 627.68C324.023 625.907 323.554 622.21 323.118 619.978C326.324 620.258 329.739 620.947 332.938 620.852C333.72 619.675 333.489 619.612 333.224 618.25L332.75 616.434C337.025 617.24 341.46 619.422 345.561 620.993L388.402 639.195L427.003 656.648C472.601 678.434 517.61 703.036 559.272 731.724C557.172 739.966 556.381 747.792 556.566 756.285C529.482 765.778 502.608 778.992 477.32 792.5C469.845 796.492 461.664 800.337 455.003 805.584L440.682 805.643L440.934 809.25L440.565 809.518C437.678 811.165 433.061 810.466 429.946 809.891L429.377 809.782L430.05 816.447L412.5 816.367C410.57 815.095 412.376 813.355 411.25 811.478C407.484 812.126 403.516 811.972 399.699 812.027L401.055 806.215L391.072 805.365L398.111 800.475C393.649 799.253 389.377 797.303 385.065 795.648L361.068 786.18L343.056 775.548L343.535 773.033Z"/>
	<path fill="#1F4D2E" d="M398.111 800.475C403.53 797.712 407.587 795.329 411.827 790.924C408.432 789.013 401.806 788.335 397.904 787.671L411.118 773.953C407.997 773.883 404.038 774.246 401.048 773.513L413.735 759.914L407.101 759.143L420.006 714.494L431.455 758.782C429.169 759.023 426.83 759.146 424.624 759.821L437.009 772.842L426.191 774.131L439.443 787.136L425.772 790.525C429.316 794.248 433.384 797.197 437.215 800.593C438.003 801.291 440.044 802.803 440.421 803.759C440.653 804.349 440.595 805.015 440.682 805.643L440.934 809.25L440.565 809.518C437.678 811.165 433.061 810.466 429.946 809.891L429.377 809.782L430.05 816.447L412.5 816.367C410.57 815.095 412.376 813.355 411.25 811.478C407.484 812.126 403.516 811.972 399.699 812.027L401.055 806.215L391.072 805.365L398.111 800.475Z"/>
	<path fill="#6BB359" d="M858.069 551.701L862.707 551.396C856.735 578.036 852.975 604.246 851.475 631.508L850.604 654.25L850.547 669.771C850.549 671.812 851.046 675.212 850 676.91C848.629 677.013 848.055 677.285 846.893 676.5L843.64 647.698C841.167 633.296 837.741 619.176 832.532 605.5C829.713 598.099 826.502 590.756 821.889 584.28C820.005 581.636 817.725 578.488 814.994 576.684C813.494 575.693 811.602 574.851 809.781 575.348C806.72 576.183 803.327 580.32 801.467 582.772C797.286 588.281 794.205 594.581 791.311 600.834C782.03 620.882 777.364 643.182 773.963 664.902L772.019 682.912C771.816 685.211 772.125 689.526 770.952 691.378L769 691.512C768.724 691.316 768.355 691.21 768.173 690.926C767.733 690.234 767.621 680.193 767.463 678.5C766.026 663.084 762.64 647.297 757.01 632.86C753.86 624.784 749.673 615.489 743.985 608.839C742.542 607.152 740.696 605.326 738.589 604.506C737.069 603.915 735.792 604.007 734.317 604.685C729.957 606.687 726.966 611.716 724.648 615.728C712.798 636.237 707.871 660.914 705.016 684.17L703.465 698.755C703.249 701.723 703.635 706.025 702.553 708.75C701.612 708.915 700.88 709.062 699.922 708.892C698.751 708.685 698.758 706.524 698.552 705.453C696.454 694.568 693.058 682.563 686.436 673.503C684.705 671.135 681.835 667.709 678.75 667.364C676.827 667.149 675.312 667.746 673.846 668.964C661.407 679.305 655.963 706.932 654.401 722.225L646.573 724.759L641.157 698.388C638.581 690.119 635.506 681.436 630.189 674.477C628.719 672.552 626.944 670.144 624.337 669.95C622.444 669.809 620.95 670.741 619.624 671.998C616.327 675.123 614.051 679.704 612.121 683.769C603.958 700.965 600.172 721.404 599.173 740.314L593.271 741.877C592.244 732.331 590.603 722.698 587.001 713.75C585.251 709.403 581.705 701.384 577.037 699.63C575.712 699.133 574.098 699.278 572.862 700.01C567.076 703.437 563.67 715.943 561.723 722.036C542.325 707.427 520.936 695.169 499.763 683.321C490.255 678.001 480.895 672.347 470.922 667.925C497.408 651.475 525.372 637.885 554.02 625.724L600.849 607.083C656.998 587.355 715.024 574.235 773.598 564.098L858.069 551.701Z"/>
	<defs>
		<linearGradient id="gradient_0" gradientUnits="userSpaceOnUse" x1="780.71533" y1="964.92908" x2="777.45526" y2="809.21716">
			<stop offset="0" stop-color="#03AA5A"/>
			<stop offset="1" stop-color="#9EBA60"/>
		</linearGradient>
	</defs>
	<path fill="url(#gradient_0)" d="M954.995 805.508C955.971 807.52 955.359 847.935 955.129 853.491L955.246 923.066L955.294 942.593C955.295 945.799 955.622 949.464 955.088 952.616C954.716 954.817 953.505 956.753 951.942 958.315C949.934 960.321 946.699 961.631 943.885 961.916C940.452 962.263 936.659 961.904 933.199 961.852L912.477 961.579L845.093 961.446L604 961.525L602.987 960.75C603.168 958.549 603.934 958.03 605.616 956.63C613.626 949.964 623.043 944.175 631.771 938.491C668.766 914.399 708.163 894.641 748.526 876.875L763.296 870.433C764.449 869.958 766.338 868.87 767.539 868.732L810.02 851.727L824.075 846.775C826.745 845.85 829.441 844.626 832.236 844.18C836.951 842.116 842.633 841.025 846.961 838.356L847.126 838.142L955.109 813.278L954.995 805.508Z"/>
	<defs>
		<linearGradient id="gradient_1" gradientUnits="userSpaceOnUse" x1="842.51685" y1="294.15439" x2="830.47278" y2="476.94577">
			<stop offset="0" stop-color="#F8BD75"/>
			<stop offset="1" stop-color="#FEDA9A"/>
		</linearGradient>
	</defs>
	<path fill="url(#gradient_1)" d="M720.634 300.834L955.057 300.593L955.372 252.748L955.162 397.939L955.224 424.512C955.231 426.271 955.757 430.746 955.146 432.186C954.365 434.027 952.043 436.308 950.748 437.915C945.006 445.041 938.988 451.933 932.588 458.476L907.125 481.569C904.395 479.927 901.876 477.099 899.513 474.93L882.779 459.244L849.289 427.773C845.934 424.653 842.071 419.541 838.265 417.255C835.932 415.854 832.687 415.062 830 415.666C828.157 416.08 826.301 417.292 824.851 418.462C817.267 424.581 810.227 431.916 803 438.495L763.383 474.53L720.596 436.234C721.864 431.561 723.539 427.09 724.651 422.314C730.724 396.219 732.597 368.444 729.372 341.831C727.691 327.96 724.473 314.251 720.634 300.834Z"/>
	<path fill="#008040" d="M817.956 756.584C820.975 757.153 822.702 757.189 824.75 759.695L826.51 759.279C826.763 761.042 826.814 763.388 827.735 764.926C824.197 769.225 819.807 772.726 815.14 775.75L815.202 776.75C818.623 778.588 823.473 778.034 827.252 778.015C821.825 783.494 816.808 787.112 810.25 791.122C811.011 792.464 812.267 792.63 813.75 792.98C817.259 793.809 821.264 793.963 824.843 794.011C818.85 799.368 813.362 803.522 805.425 805.547C808.244 806.795 812.004 807.81 814.503 809.532C801.89 812.393 789.007 813.982 776.244 816.044L725.75 825.3L560.084 866.308L489.951 888.695C451.755 902.365 414.379 917.361 377.687 934.693L347.881 949.596C341.377 953.013 335.071 956.873 328.305 959.762L328.164 888.929L328.303 877.012C328.327 876.01 328.115 873.619 328.431 872.75C328.531 872.477 328.81 872.31 329 872.09C332.419 872.543 336.817 878.965 339.263 881.419C342.168 884.336 345.217 887.029 348.484 889.534C355.204 894.685 362.694 898.42 370.137 902.374C375.021 904.968 380.396 908.196 385.733 909.734L369.94 888.967L380.113 889.226L391.629 890.009C392.725 890.043 394.408 890.327 395.424 889.92L377.102 874.606C372.705 871.009 367.961 867.382 364.028 863.274L376.74 860.693C365.832 852.066 353.537 844.607 341.862 837.046L330.963 830.179C330.28 829.718 328.799 828.919 328.493 828.176C327.962 826.887 327.954 824.318 327.783 822.858C327.497 820.415 327.306 817.9 326.796 815.492C326.399 813.618 325.639 811.676 325.457 809.785L336.489 820.908C338.109 822.635 340.98 826.791 343.051 827.812C344.023 828.291 346.243 828.453 347.381 828.635C350.957 829.205 354.599 829.575 358.144 830.314C368.282 832.429 378.198 835.706 388.252 838.209C384.301 834.56 379.78 831.336 375.498 828.084L353.074 811.514L378.474 811.982C373.121 808.068 367.889 804.276 363.235 799.528L378.593 799.022C374.471 796.156 370.23 793.656 366.189 790.608C364.395 789.255 362.359 788.046 361.068 786.18L385.065 795.648C389.377 797.303 393.649 799.253 398.111 800.475L391.072 805.365L401.055 806.215L399.699 812.027C403.516 811.972 407.484 812.126 411.25 811.478C412.376 813.355 410.57 815.095 412.5 816.367L430.05 816.447L429.377 809.782L429.946 809.891C433.061 810.466 437.678 811.165 440.565 809.518L440.934 809.25L440.682 805.643L455.003 805.584C457.907 806.195 461.192 805.885 464.153 805.766C468.493 805.59 473.239 805.667 477.396 804.33C480.894 805.051 485.41 804.581 489.006 804.445L518.298 802.405C582.137 797.205 645.551 787.612 708.5 775.862L783.61 760.704C791.957 759.209 800.363 757.85 808.834 757.295C811.145 757.144 816.086 757.762 817.956 756.584Z"/>
	<defs>
		<linearGradient id="gradient_2" gradientUnits="userSpaceOnUse" x1="516.88232" y1="64.029793" x2="511.07245" y2="482.10828">
			<stop offset="0" stop-color="#F79340"/>
			<stop offset="1" stop-color="#F9D17E"/>
		</linearGradient>
	</defs>
	<path fill="url(#gradient_2)" d="M75.7148 174.815L75.9134 110.008L75.8773 90.1471C75.8732 86.6443 75.532 82.767 76.0785 79.3241C76.4528 76.9653 77.6106 74.8953 79.25 73.1702C82.379 69.8775 85.4512 70.4761 89.6106 70.4609L654.043 70.2293L866.188 70.2087L925.682 70.3568L945 70.0073C947.729 70.0763 949.46 71.3888 951.227 73.3509C952.89 75.1978 954.569 77.7587 954.97 80.25C955.694 84.7515 955.152 90.2334 955.166 94.8217L955.261 128.941L955.406 249.067L955.372 252.748L955.057 300.593L720.634 300.834C724.473 314.251 727.691 327.96 729.372 341.831C732.597 368.444 730.724 396.219 724.651 422.314C723.539 427.09 721.864 431.561 720.596 436.234C717.418 433.078 713.362 428.213 708.722 427.471C706.875 427.176 704.212 427.158 702.467 427.853C694.921 430.86 660.704 464.004 658.871 463.89C658.432 463.863 658.231 463.286 657.911 462.984L579.988 389.917L563.275 373.893C560.16 370.999 557.005 367.821 553.405 365.528C550.093 363.418 546.171 362.477 542.266 362.51C538.622 362.541 535.366 363.424 532.238 365.302C527.223 368.313 522.821 373.357 518.587 377.394L496.736 398.571C493.555 397.461 490.137 394.922 487.084 393.316C474.995 386.954 461.743 381.648 447.841 384.803L447.145 384.97L444.888 379.488C441.083 371.776 433.974 365.972 425.868 363.256C412.833 358.89 401.398 361.781 389.54 367.664C390.819 364.42 392.391 361.076 392.533 357.552C392.859 349.435 391.414 342.089 385.721 335.935C379.922 329.667 372.621 327.175 364.267 326.864C366.032 312.346 364.196 300.145 356.226 287.681C348.031 274.866 334.812 266.196 320.091 262.903C303.68 261.068 289.314 264.802 276.401 275.213C265.531 283.976 257.832 297.639 256.43 311.551C255.8 317.803 256.446 323.482 257.809 329.587C247.392 326.123 237.854 325.546 227.826 330.587C219.071 334.988 212.491 342.536 209.666 351.925C208.5 355.798 208.45 359.497 207.892 363.44C200.218 359.264 191.817 357.434 183.25 360.068C175.251 362.527 168.92 368.407 165.219 375.794L164.946 376.348L155.43 335.155C154.092 329.296 153.399 322.289 151.192 316.765L134.971 389.008C130.149 409.235 126.147 430.342 118.426 449.703L140.99 448.108L140.673 449.641C140.338 451.119 139.872 454.445 139.109 455.631C137.658 457.887 132.249 460.76 129.954 462.329L108.313 477.119C106.581 476.306 104.916 474.392 103.644 472.95C94.9143 463.055 88.3125 450.795 81.3756 439.597C79.6934 436.882 77.128 433.812 76.0267 430.891C75.6972 430.018 75.6955 429.406 75.7653 428.497L75.7148 174.815Z"/>
	<path fill="white" d="M699.795 257.577C703.254 252.314 709.096 248.851 715.25 247.689C724.892 245.867 733.737 248.491 741.614 254.023L745.643 251.443C740.539 245.539 737.392 240.2 735.137 232.677C731.015 218.921 732.242 203.219 739.152 190.574C746.626 176.899 759.491 166.86 774.472 162.581C788.723 158.509 804.295 160.589 817.162 167.807C831.195 175.68 840.204 188.342 844.466 203.652C851.145 201.487 857.086 200.094 864.157 201.145C875.291 202.799 884.652 209.056 891.108 218.197C898.122 228.126 897.594 239.587 895.641 250.979L898.616 246.767C904 240.066 913.229 235.676 921.688 234.865C929.5 234.115 938.123 235.7 944.718 240.15C948.535 242.725 951.876 246.11 955.406 249.067L955.372 252.748L955.057 300.593L720.634 300.834L573.28 299.77C593.361 295.849 613.878 292.142 633.399 285.965C639.131 284.151 643.382 281.003 648.69 278.439C652.199 276.744 656.008 275.785 659.842 275.202C668.3 273.916 676.33 276.728 683.075 281.696C683.896 279.276 684.052 276.641 684.782 274.182C687.262 265.834 693.26 262.98 699.435 257.879L699.795 257.577Z"/>
	<defs>
		<linearGradient id="gradient_3" gradientUnits="userSpaceOnUse" x1="517.51379" y1="454.76755" x2="535.41663" y2="149.25691">
			<stop offset="0" stop-color="#FFD107"/>
			<stop offset="1" stop-color="#F87128"/>
		</linearGradient>
	</defs>
	<path fill="url(#gradient_3)" d="M421.412 167.312C473.282 144.246 534.809 142.013 588.001 161.77C593.67 163.382 599.257 166.019 604.634 168.408C636.547 182.586 664.732 205.965 685.427 234C690.869 241.372 695.316 249.604 699.795 257.577L699.435 257.879C693.26 262.98 687.262 265.834 684.782 274.182C684.052 276.641 683.896 279.276 683.075 281.696C676.33 276.728 668.3 273.916 659.842 275.202C656.008 275.785 652.199 276.744 648.69 278.439C643.382 281.003 639.131 284.151 633.399 285.965C613.878 292.142 593.361 295.849 573.28 299.77L720.634 300.834C724.473 314.251 727.691 327.96 729.372 341.831C732.597 368.444 730.724 396.219 724.651 422.314C723.539 427.09 721.864 431.561 720.596 436.234C717.418 433.078 713.362 428.213 708.722 427.471C706.875 427.176 704.212 427.158 702.467 427.853C694.921 430.86 660.704 464.004 658.871 463.89C658.432 463.863 658.231 463.286 657.911 462.984L579.988 389.917L563.275 373.893C560.16 370.999 557.005 367.821 553.405 365.528C550.093 363.418 546.171 362.477 542.266 362.51C538.622 362.541 535.366 363.424 532.238 365.302C527.223 368.313 522.821 373.357 518.587 377.394L496.736 398.571C493.555 397.461 490.137 394.922 487.084 393.316C474.995 386.954 461.743 381.648 447.841 384.803L447.145 384.97L444.888 379.488C441.083 371.776 433.974 365.972 425.868 363.256C412.833 358.89 401.398 361.781 389.54 367.664C390.819 364.42 392.391 361.076 392.533 357.552C392.859 349.435 391.414 342.089 385.721 335.935C379.922 329.667 372.621 327.175 364.267 326.864C366.032 312.346 364.196 300.145 356.226 287.681C348.031 274.866 334.812 266.196 320.091 262.903L320.222 262.472C322.55 255.4 326.78 248.965 330.765 242.736C350.106 212.503 378.481 187.974 410.635 172.238L421.412 167.312Z"/>
</svg>
