<?xml version="1.0" encoding="UTF-8" standalone="no"?>
<!DOCTYPE svg PUBLIC "-//W3C//DTD SVG 1.1//EN" "http://www.w3.org/Graphics/SVG/1.1/DTD/svg11.dtd">
<!-- Created with Vectornator (http://vectornator.io/) -->
<svg height="100%" stroke-miterlimit="10" style="fill-rule:nonzero;clip-rule:evenodd;stroke-linecap:round;stroke-linejoin:round;" version="1.1" viewBox="0 0 1024 1024" width="100%" xml:space="preserve" xmlns="http://www.w3.org/2000/svg" xmlns:vectornator="http://vectornator.io" xmlns:xlink="http://www.w3.org/1999/xlink">
<defs/>
<clipPath id="ArtboardFrame">
<rect height="1024" width="1024" x="0" y="0"/>
</clipPath>
<g clip-path="url(#ArtboardFrame)" id="Untitled" vectornator:layerName="Untitled">
<path d="M103.643 0.364692L171.167-1.7053e-13L285.62 0.107905L635.357 0.118832L833.537 0.084685L889.3 0.203517C901.571 0.224006 914.234-0.355131 926.414 1.23613C947.33 3.9679 968.097 13.4062 984.082 27.0938C1006.8 46.5467 1021.26 73.8044 1023.38 103.653C1024.59 120.821 1023.65 138.698 1023.65 155.956L1023.6 256.537L1023.55 568.332L1023.54 809.037L1023.55 879.491C1023.55 895.467 1024.3 911.723 1022.29 927.6C1019.72 948.018 1009.6 969.771 995.977 985.14C976.387 1007.23 948.994 1021.28 919.408 1023.25C902.834 1024.78 885.184 1023.52 868.498 1023.39L782.73 1023.3L454.393 1023.44L212.08 1023.33L140.96 1023.24C126.701 1023.23 111.83 1024.06 97.6768 1022.3C69.4084 1018.77 41.6227 1002.39 24.2538 979.902C11.0767 962.838 3.09502 942.297 1.00396 920.91C-0.618155 904.335 0.624141 886.637 0.632369 869.918L0.689958 770.197L0.607687 454.906L0.341677 212.64L0.21827 137.71C0.230611 124.208-0.699055 109.823 1.1877 96.4686C4.19471 75.1798 12.7029 54.1288 26.8097 37.7122C46.4575 14.8472 73.958 2.68534 103.643 0.364692Z" fill="#e9e5e6" fill-rule="nonzero" opacity="1" stroke="none" vectornator:layerName="path"/>
<path d="M79.0122 685.217L122.424 688.035C170.764 692.896 219.148 701.993 266.081 714.51L317.684 730.583L396.762 762.847L451.004 792.054C447.113 795.533 442.614 798.045 438.236 800.851L418.341 813.729C407.624 821.117 395.898 827.462 384.784 834.291L335.711 865.466L322.27 873.533C319.641 874.986 316.203 876.391 314.101 878.508L363.177 903.677L508.768 980.668L246.977 980.276L169.254 980.277C156.513 980.275 142.303 981.442 129.746 979.674C112.602 977.259 96.0876 971.165 82.3469 960.495C61.2197 944.091 47.3364 920.492 43.8138 894.049C42.1355 881.454 43.1954 867.72 43.1488 854.995L42.6099 781.472C43.7782 771.761 42.8883 760.943 42.8759 751.135L42.6606 688.377L42.5893 686.406C54.4186 684.638 67.0733 685.047 79.0122 685.217Z" fill="#335625" fill-rule="nonzero" opacity="1" stroke="none" vectornator:layerName="path"/>
<path d="M79.0122 685.217L122.424 688.035C170.764 692.896 219.148 701.993 266.081 714.51L317.684 730.583L396.762 762.847L451.004 792.054C447.113 795.533 442.614 798.045 438.236 800.851L418.341 813.729C407.624 821.117 395.898 827.462 384.784 834.291L335.711 865.466L322.27 873.533C319.641 874.986 316.203 876.391 314.101 878.508L254.405 849.317C186.852 817.898 117.475 791.655 43.6054 779.548L42.6099 781.472C43.7782 771.761 42.8883 760.943 42.8759 751.135L42.6606 688.377L42.5893 686.406C54.4186 684.638 67.0733 685.047 79.0122 685.217Z" fill="#a9b73c" fill-rule="nonzero" opacity="1" stroke="none" vectornator:layerName="path"/>
<path d="M79.0122 685.217L122.424 688.035C170.764 692.896 219.148 701.993 266.081 714.51L317.684 730.583L396.762 762.847L451.004 792.054C447.113 795.533 442.614 798.045 438.236 800.851L418.341 813.729C372.422 798.488 328.352 777.243 284.592 756.815C229.123 730.921 171.942 707.142 111.502 695.567C89.2591 691.307 65.3072 689.008 42.6606 688.377L42.5893 686.406C54.4186 684.638 67.0733 685.047 79.0122 685.217Z" fill="#d3e367" fill-rule="nonzero" opacity="1" stroke="none" vectornator:layerName="path"/>
<path d="M980.468 611.907L980.49 618.036L980.539 744.203L980.617 839.404L980.539 870.331C980.494 881.157 980.519 891.699 977.988 902.304C973.69 920.305 964.698 936.905 951.576 950.031C934.58 967.031 912.098 977.627 888.099 979.882C876.864 980.937 865.232 980.377 853.943 980.358L653.964 980.244C643.829 980.994 633.324 980.489 623.145 980.5L566.67 980.546L527.329 980.612C521.353 980.634 514.677 981.278 508.768 980.668L363.177 903.677L314.101 878.508C316.203 876.391 319.641 874.986 322.27 873.533L335.711 865.466L384.784 834.291C395.898 827.462 407.624 821.117 418.341 813.729L438.236 800.851C442.614 798.045 447.113 795.533 451.004 792.054L530.27 744.231L574.633 719.502L713.387 661.021L735.135 654.244L759.316 646.715L835.254 629.252C883.108 620.799 931.721 612.4 980.468 611.907Z" fill="#808b2d" fill-rule="nonzero" opacity="1" stroke="none" vectornator:layerName="path"/>
<path d="M363.177 903.677C379.877 895.42 396.471 887.236 413.805 880.327C486.303 851.434 564.632 838.136 642.485 838.075C664.862 838.057 686.776 838.045 709.002 841.033C701.228 846.438 692.694 851.134 684.605 856.095L644.209 882.261C620.287 898.977 596.283 916.563 573.978 935.367L522.941 980.183L618.565 979.956L642.201 979.947C645.948 979.947 650.313 979.465 653.964 980.244C643.829 980.994 633.324 980.489 623.145 980.5L566.67 980.546L527.329 980.612C521.353 980.634 514.677 981.278 508.768 980.668L363.177 903.677Z" fill="#a9b73c" fill-rule="nonzero" opacity="1" stroke="none" vectornator:layerName="path"/>
<path d="M980.468 611.907L980.49 618.036L980.539 744.203C961.151 746.91 941.754 749.822 922.655 754.157C866.149 766.986 811.074 788.089 759.511 814.303C748.117 820.095 736.397 825.596 725.394 832.098L709.002 841.033C686.776 838.045 664.862 838.057 642.485 838.075C564.632 838.136 486.303 851.434 413.805 880.327C396.471 887.236 379.877 895.42 363.177 903.677L314.101 878.508C316.203 876.391 319.641 874.986 322.27 873.533L335.711 865.466L384.784 834.291C395.898 827.462 407.624 821.117 418.341 813.729L438.236 800.851C442.614 798.045 447.113 795.533 451.004 792.054L530.27 744.231L574.633 719.502L713.387 661.021L735.135 654.244L759.316 646.715L835.254 629.252C883.108 620.799 931.721 612.4 980.468 611.907Z" fill="#f2c44e" fill-rule="nonzero" opacity="1" stroke="none" vectornator:layerName="path"/>
<path d="M725.394 832.098C721.296 829.745 715.753 828.565 711.198 827.212C682.819 818.775 652.714 814.075 623.12 813.307L640.123 790.708C678.165 746.145 725.815 709.946 777.332 682.122C800.091 669.829 823.324 658.29 847.464 648.907C889.746 632.474 935.233 621.626 980.49 618.036L980.539 744.203C961.151 746.91 941.754 749.822 922.655 754.157C866.149 766.986 811.074 788.089 759.511 814.303C748.117 820.095 736.397 825.596 725.394 832.098Z" fill="#a9b73c" fill-rule="nonzero" opacity="1" stroke="none" vectornator:layerName="path"/>
<path d="M42.5345 210.281C53.903 202.795 68.9326 198.881 82.4909 201.624C99.1248 204.988 113.062 214.586 122.187 228.861C127.733 237.539 131.252 247.457 132.542 257.641C127.458 264.096 124.15 271.443 121.45 279.148L460.54 279.208C468.801 288.264 475.372 298.389 481.539 308.947L486.912 318.472C487.463 319.487 488.295 321.635 489.043 322.411C489.148 322.522 490.404 322.63 490.523 322.63C494.999 322.627 499.727 321.724 504.248 321.474C515.788 320.836 524.824 323.595 534.441 329.744C536.693 331.184 538.943 333.812 541.47 332.706C542.212 356.759 552.238 377.947 569.87 394.404L577.409 400.583C575.992 403.863 572.489 410.773 573.125 414.29L817.091 414.557L789.186 492.994L797.523 492.501L789.071 516.71L772.637 561.777C775.7 561.45 782.506 559.955 784.927 561.615L778.296 582.229C777.217 586.127 776.394 590.921 774.385 594.421C775.233 599.565 771.203 607.681 769.545 612.677L763.031 633.085C761.587 637.551 759.944 642.048 759.316 646.715L735.135 654.244L713.387 661.021L574.633 719.502L530.27 744.231L451.004 792.054L396.762 762.847L317.684 730.583L266.081 714.51C219.148 701.993 170.764 692.896 122.424 688.035L79.0122 685.217C67.0733 685.047 54.4186 684.638 42.5893 686.406L42.7594 618.016L42.7141 482.706L42.6853 445.281C42.6483 436.699 41.5884 427.235 43.7919 418.919C42.093 415.119 42.6963 410.272 42.6716 406.132L42.4879 382.106L42.5345 210.281Z" fill="#83d3e0" fill-rule="nonzero" opacity="1" stroke="none" vectornator:layerName="path"/>
<path d="M43.7919 418.919L65.8611 344.355L70.3984 328.015C71.0703 325.584 71.5488 322.56 72.8377 320.394L123.71 491.396L112.27 491.72L121.771 510.777C121.389 517.364 118.253 524.538 116.378 530.878L105.617 566.953C102.417 576.166 98.3555 585.052 94.5765 594.038L115.324 581.609L93.6455 626.276L85.0221 643.168C82.99 646.956 80.5877 650.619 79.1493 654.677L79.7156 656.174C90.138 657.041 96.2453 651.906 104.276 646.126L87.1516 672.092C84.379 676.299 81.0333 680.616 79.0122 685.217C67.0733 685.047 54.4186 684.638 42.5893 686.406L42.7594 618.016L42.7141 482.706L42.6853 445.281C42.6483 436.699 41.5884 427.235 43.7919 418.919Z" fill="#194327" fill-rule="nonzero" opacity="1" stroke="none" vectornator:layerName="path"/>
<path d="M149.765 492.767L174.234 402.552L205.922 508.128L215.193 538.829C217.014 544.9 218.569 551.589 221.095 557.39C225.877 556.576 230.316 555.645 234.881 553.988L248.619 511.364L253.283 493.278C254.016 490.448 254.576 487.031 255.93 484.438L270.603 536.657C273.164 545.996 276.606 555.188 280.219 564.17C281.963 568.506 283.525 573.184 285.805 577.267C287.738 581.774 291.209 587.466 291.881 592.238L293.754 594.197C292.431 598.33 291.25 604.262 288.912 607.826L289.118 608.425C291.509 615.204 307.452 643.453 306.288 647.924C299.924 648.365 291.709 643.47 285.986 640.774L286.292 641.258C296.228 657.323 304.046 675.145 313.166 691.746L320.337 704.19C320.692 704.797 322.207 706.955 322.264 707.605C322.313 708.165 322.01 708.699 321.882 709.247C312.305 712.595 300.427 706.407 291.624 702.752L307.619 718.58C311.195 722.142 315.69 725.87 317.684 730.583L266.081 714.51C219.148 701.993 170.764 692.896 122.424 688.035L79.0122 685.217C81.0333 680.616 84.379 676.299 87.1516 672.092L104.276 646.126C96.2453 651.906 90.138 657.041 79.7156 656.174L79.1493 654.677C80.5877 650.619 82.99 646.956 85.0221 643.168L93.6455 626.276L115.324 581.609L94.5765 594.038C98.3555 585.052 102.417 576.166 105.617 566.953L116.378 530.878C118.253 524.538 121.389 517.364 121.771 510.777C126.355 498.388 129.612 485.221 133.088 472.48C134.706 466.546 135.959 460.087 138.464 454.476C141.593 466.668 144.396 480.728 149.516 492.226L149.765 492.767Z" fill="#33893d" fill-rule="nonzero" opacity="1" stroke="none" vectornator:layerName="path"/>
<path d="M288.912 607.826C287.185 604.246 279.509 590.64 280.478 587.539C283.491 590.268 287.134 591.572 291.129 592.141L291.881 592.238L293.754 594.197C292.431 598.33 291.25 604.262 288.912 607.826Z" fill="#24526a" fill-rule="nonzero" opacity="1" stroke="none" vectornator:layerName="path"/>
<path d="M221.095 557.39C225.877 556.576 230.316 555.645 234.881 553.988C232.674 560.954 230.663 569.055 227.103 575.464L221.095 557.39Z" fill="#316376" fill-rule="nonzero" opacity="1" stroke="none" vectornator:layerName="path"/>
<path d="M149.765 492.767L174.234 402.552L205.922 508.128L215.193 538.829C217.014 544.9 218.569 551.589 221.095 557.39L227.103 575.464C226.246 581.988 221.417 590.182 219.117 596.617C226.445 594.202 231.599 590.232 236.866 584.824C236.453 588.042 233.586 592.641 232.188 595.714L215.799 630.218C211.938 638.252 207.9 646.263 205.615 654.906L226.507 643.791L227.469 643.143L200.883 691.524L173.796 645.938C180.937 649.351 187.634 654.21 195.807 653.487C196.877 649.295 192.304 641.876 190.442 637.894L167.649 592.004C165.459 587.497 163.536 582.838 161.828 578.131C166.051 580.685 169.857 584.387 173.993 587.202C175.917 588.511 178.57 590.579 181.007 590.139C181.407 587.422 178.785 582.813 177.672 580.263L169.655 560.84C161.652 538.727 155.875 515.468 149.765 492.767Z" fill="#335625" fill-rule="nonzero" opacity="1" stroke="none" vectornator:layerName="path"/>
<path d="M205.922 508.128C217.919 503.489 229.85 494.662 241.082 488.308L344.093 429.644C365.071 417.449 385.855 403.475 407.774 393.109C413.921 390.203 420.186 388.056 426.888 386.863C438.954 384.716 451.634 386.081 463.046 390.468C471.9 393.872 479.54 399.125 487.445 404.239L513.185 420.892L594.381 475.131C615.529 462.197 640.078 439.981 666.674 446.129C685.076 450.384 703.037 465.661 717.829 476.893C739.424 493.289 762.27 510.18 789.071 516.71L772.637 561.777C775.7 561.45 782.506 559.955 784.927 561.615L778.296 582.229C777.217 586.127 776.394 590.921 774.385 594.421C775.233 599.565 771.203 607.681 769.545 612.677L763.031 633.085C761.587 637.551 759.944 642.048 759.316 646.715L735.135 654.244L713.387 661.021L725.326 617.529C718.463 617.485 711.616 616.626 704.704 616.693C684.793 616.888 665.161 619.681 648.29 606.692L647.271 605.894C639.851 600.228 633.265 593.164 627.398 585.933L610.616 564.528C603.52 555.425 595.873 545.476 584.444 541.737L583.511 541.442C578.462 539.787 571.787 539.714 566.57 540.692L565.685 540.871C551.729 543.382 540.377 553.271 527.935 559.39C510.753 567.839 498.67 555.509 487.654 543.689L473.743 529.694C468.587 524.863 462.35 520.563 455.789 517.886C440.135 511.5 425.105 518.787 409.744 522.27C402.168 523.987 394.23 524.732 386.478 524.155C373.793 523.212 362.6 517.176 350.708 513.295C343.258 510.865 335.69 508.781 327.784 509.628C318.655 510.607 308.176 517.277 300.081 521.519L270.603 536.657L255.93 484.438C254.576 487.031 254.016 490.448 253.283 493.278L248.619 511.364L234.881 553.988C230.316 555.645 225.877 556.576 221.095 557.39C218.569 551.589 217.014 544.9 215.193 538.829L205.922 508.128Z" fill="#43818d" fill-rule="nonzero" opacity="1" stroke="none" vectornator:layerName="path"/>
<path d="M594.381 475.131C615.529 462.197 640.078 439.981 666.674 446.129C685.076 450.384 703.037 465.661 717.829 476.893C739.424 493.289 762.27 510.18 789.071 516.71L772.637 561.777C775.7 561.45 782.506 559.955 784.927 561.615L778.296 582.229C777.217 586.127 776.394 590.921 774.385 594.421C775.233 599.565 771.203 607.681 769.545 612.677L763.031 633.085C761.587 637.551 759.944 642.048 759.316 646.715L735.135 654.244L713.387 661.021L725.326 617.529L740.128 569.433C704.473 552.166 673.499 529.099 641.051 506.731C625.702 496.151 609.087 486.529 594.381 475.131Z" fill="#59c2d9" fill-rule="nonzero" opacity="1" stroke="none" vectornator:layerName="path"/>
<path d="M740.128 569.433L753.571 527.162C756.457 533.513 758.092 540.521 760.178 547.179L770.398 580.963C772.97 581.359 775.794 581.561 778.296 582.229C777.217 586.127 776.394 590.921 774.385 594.421C775.233 599.565 771.203 607.681 769.545 612.677L763.031 633.085C761.587 637.551 759.944 642.048 759.316 646.715L735.135 654.244L713.387 661.021L725.326 617.529L740.128 569.433Z" fill="#335625" fill-rule="nonzero" opacity="1" stroke="none" vectornator:layerName="path"/>
<path d="M770.398 580.963C772.97 581.359 775.794 581.561 778.296 582.229C777.217 586.127 776.394 590.921 774.385 594.421L770.398 580.963Z" fill="#43818d" fill-rule="nonzero" opacity="1" stroke="none" vectornator:layerName="path"/>
<path d="M735.135 654.244L735.335 652.329C736.643 643.242 740.352 636.65 747.734 631.264C751.725 630.966 759.922 630.427 763.031 633.085C761.587 637.551 759.944 642.048 759.316 646.715L735.135 654.244Z" fill="#194327" fill-rule="nonzero" opacity="1" stroke="none" vectornator:layerName="path"/>
<path d="M270.603 536.657L300.081 521.519C308.176 517.277 318.655 510.607 327.784 509.628C335.69 508.781 343.258 510.865 350.708 513.295C362.6 517.176 373.793 523.212 386.478 524.155C394.23 524.732 402.168 523.987 409.744 522.27C425.105 518.787 440.135 511.5 455.789 517.886C462.35 520.563 468.587 524.863 473.743 529.694L487.654 543.689C498.67 555.509 510.753 567.839 527.935 559.39C540.377 553.271 551.729 543.382 565.685 540.871L566.57 540.692C571.787 539.714 578.462 539.787 583.511 541.442L584.444 541.737C595.873 545.476 603.52 555.425 610.616 564.528L627.398 585.933C633.265 593.164 639.851 600.228 647.271 605.894L648.29 606.692C665.161 619.681 684.793 616.888 704.704 616.693C711.616 616.626 718.463 617.485 725.326 617.529L713.387 661.021L574.633 719.502L530.27 744.231L451.004 792.054L396.762 762.847L317.684 730.583C315.69 725.87 311.195 722.142 307.619 718.58L291.624 702.752C300.427 706.407 312.305 712.595 321.882 709.247C322.01 708.699 322.313 708.165 322.264 707.605C322.207 706.955 320.692 704.797 320.337 704.19L313.166 691.746C304.046 675.145 296.228 657.323 286.292 641.258L285.986 640.774C291.709 643.47 299.924 648.365 306.288 647.924C307.452 643.453 291.509 615.204 289.118 608.425L288.912 607.826C291.25 604.262 292.431 598.33 293.754 594.197L291.881 592.238C291.209 587.466 287.738 581.774 285.805 577.267C283.525 573.184 281.963 568.506 280.219 564.17C276.606 555.188 273.164 545.996 270.603 536.657Z" fill="#316376" fill-rule="nonzero" opacity="1" stroke="none" vectornator:layerName="path"/>
<path d="M301.589 574.477L303.445 573.883L309.993 584.965C316.602 587.829 322.986 591.826 329.258 595.385L357.963 611.254L488.757 680.481L551.288 709.766L565.63 715.624C568.681 716.728 572.198 717.217 574.633 719.502L530.27 744.231L451.004 792.054L396.762 762.847L317.684 730.583C315.69 725.87 311.195 722.142 307.619 718.58L291.624 702.752C300.427 706.407 312.305 712.595 321.882 709.247C322.01 708.699 322.313 708.165 322.264 707.605C322.207 706.955 320.692 704.797 320.337 704.19L313.166 691.746C304.046 675.145 296.228 657.323 286.292 641.258L285.986 640.774C291.709 643.47 299.924 648.365 306.288 647.924C307.452 643.453 291.509 615.204 289.118 608.425L288.912 607.826C291.25 604.262 292.431 598.33 293.754 594.197L291.881 592.238C291.209 587.466 287.738 581.774 285.805 577.267C290.438 576.948 297.581 576.763 301.589 574.477Z" fill="#24526a" fill-rule="nonzero" opacity="1" stroke="none" vectornator:layerName="path"/>
<path d="M301.589 574.477L303.445 573.883L309.993 584.965L332.905 636.058L338.686 649.193C339.122 650.202 340.414 652.367 340.499 653.394C340.808 657.14 338.86 662.846 338.11 666.609C337.602 669.166 337.537 672.018 336.65 674.449L336.294 675.28C334.082 675.064 331.4 674.503 329.275 675.165L329.288 676.531L333.322 677.822C334.484 678.143 335.365 678.661 336.395 679.263L355.434 616.028L371.994 668.333C374.345 675.916 375.468 683.227 378.63 690.641L397.106 735.587L384.558 731.733L385.089 732.526C390.303 740.429 396.127 753.461 396.762 762.847L317.684 730.583C315.69 725.87 311.195 722.142 307.619 718.58L291.624 702.752C300.427 706.407 312.305 712.595 321.882 709.247C322.01 708.699 322.313 708.165 322.264 707.605C322.207 706.955 320.692 704.797 320.337 704.19L313.166 691.746C304.046 675.145 296.228 657.323 286.292 641.258L285.986 640.774C291.709 643.47 299.924 648.365 306.288 647.924C307.452 643.453 291.509 615.204 289.118 608.425L288.912 607.826C291.25 604.262 292.431 598.33 293.754 594.197L291.881 592.238C291.209 587.466 287.738 581.774 285.805 577.267C290.438 576.948 297.581 576.763 301.589 574.477Z" fill="#335625" fill-rule="nonzero" opacity="1" stroke="none" vectornator:layerName="path"/>
<path d="M285.805 577.267C290.438 576.948 297.581 576.763 301.589 574.477C299.924 581.187 296.462 587.826 293.754 594.197L291.881 592.238C291.209 587.466 287.738 581.774 285.805 577.267Z" fill="#1e486b" fill-rule="nonzero" opacity="1" stroke="none" vectornator:layerName="path"/>
<path d="M42.5345 210.281L42.5427 158.619C42.5523 148.316 42.0038 137.691 43.0569 127.444C43.7082 121.101 45.0534 115.565 46.9333 109.488C53.8893 86.9934 72.4703 66.5925 93.2273 55.8402C106.291 49.0736 120.443 45.5647 135.102 44.7014C149.111 43.8764 163.453 44.4351 177.506 44.42L253.66 44.3203L489.394 44.252L748.104 44.4364L828.642 44.4583L868.139 44.5088C882.594 44.5621 896.68 44.1455 910.624 48.6065C936.356 56.8387 956.789 72.9015 969.197 97.0477C974.494 107.353 978.437 118.679 979.876 130.203C980.955 138.834 980.486 147.893 980.478 156.588L980.475 199.037L980.526 341.807L980.45 389.293C980.434 397.232 981.44 406.839 979.699 414.533C981.233 419.642 980.571 425.824 980.532 431.147C980.464 437.371 981.066 444.49 979.611 450.531C980.157 455.637 981.208 464.196 979.83 469.126C980.973 473.661 980.404 479.044 980.402 483.709L980.353 513.417L980.468 611.907C931.721 612.4 883.108 620.799 835.254 629.252L759.316 646.715C759.944 642.048 761.587 637.551 763.031 633.085L769.545 612.677C771.203 607.681 775.233 599.565 774.385 594.421C776.394 590.921 777.217 586.127 778.296 582.229L784.927 561.615C782.506 559.955 775.7 561.45 772.637 561.777L789.071 516.71L797.523 492.501L789.186 492.994L817.091 414.557L573.125 414.29C572.489 410.773 575.992 403.863 577.409 400.583L569.87 394.404C552.238 377.947 542.212 356.759 541.47 332.706C538.943 333.812 536.693 331.184 534.441 329.744C524.824 323.595 515.788 320.836 504.248 321.474C499.727 321.724 494.999 322.627 490.523 322.63C490.404 322.63 489.148 322.522 489.043 322.411C488.295 321.635 487.463 319.487 486.912 318.472L481.539 308.947C475.372 298.389 468.801 288.264 460.54 279.208L121.45 279.148C124.15 271.443 127.458 264.096 132.542 257.641C131.252 247.457 127.733 237.539 122.187 228.861C113.062 214.586 99.1248 204.988 82.4909 201.624C68.9326 198.881 53.903 202.795 42.5345 210.281Z" fill="#59c2d9" fill-rule="nonzero" opacity="1" stroke="none" vectornator:layerName="path"/>
<path d="M541.47 332.706C541.832 312.007 547.366 291.898 560.856 275.65C575.696 257.773 597.386 246.765 620.507 244.595C644.142 242.375 666.687 248.674 684.958 264.038C702.035 278.399 712.781 300.458 714.633 322.451C695.091 326.386 678.601 333.606 667.115 350.636C661.356 359.171 658.287 368.272 657.439 378.519L656.581 378.012C644.653 371.039 629.211 368.112 615.676 371.355L614.391 371.655C603.339 374.317 592.255 380.618 584.875 389.353C582.006 392.749 579.858 396.874 577.409 400.583L569.87 394.404C552.238 377.947 542.212 356.759 541.47 332.706Z" fill="#f2c44e" fill-rule="nonzero" opacity="1" stroke="none" vectornator:layerName="path"/>
<path d="M132.542 257.641C141.255 249.546 153.943 243.602 166.025 243.965C173.414 244.189 179.642 246.682 186.369 249.443C188.02 233.802 191.91 222.584 204.414 212.472C214.608 204.228 227.708 199.5 240.888 200.425C242.197 200.516 247.783 201.395 248.568 201.031C249.056 200.806 248.911 200.017 249.083 199.508C251.033 193.785 253.074 188.497 256.192 183.295C272.243 156.528 303.149 142.285 334 145.595C354.197 147.763 374.606 158.894 387.111 174.891C390.967 179.823 394.474 185.544 396.918 191.312C398.34 194.668 399.201 198.276 400.682 201.574C412.526 198.122 425.014 199.134 435.956 205.058C448.636 211.922 457.716 223.711 461.575 237.505C462.699 241.524 462.387 247.075 463.913 250.683C474.841 245.133 485.802 242.781 497.865 246.574C510.802 250.642 521.582 261.458 527.536 273.37L530.355 279.562L460.54 279.208L121.45 279.148C124.15 271.443 127.458 264.096 132.542 257.641Z" fill="#e9e5e6" fill-rule="nonzero" opacity="1" stroke="none" vectornator:layerName="path"/>
<path d="M714.633 322.451C716.938 322.354 719.31 322.139 721.608 322.3C728.311 303.298 737.133 288.306 756.064 279.108C771.134 271.784 789.437 269.994 805.393 275.61C823.686 282.049 838.165 296.72 846.452 313.911L847.526 316.555C866.961 313.662 881.139 314.882 897.334 326.72L899.233 328.211L883.365 375.615L872.045 418.296C871.044 422.018 870.501 427.317 868.434 430.517C870.375 436.144 857.357 463.051 859.653 466.526C860.011 467.069 860.669 467.341 861.176 467.75C862.597 467.746 863.484 467.716 864.759 467.004C868.358 464.993 871.834 460.792 874.873 457.979C881.08 452.232 890.524 447.066 898.396 444.243C893.058 449.13 887.017 454.039 882.516 459.692C873.352 471.197 869.147 487.541 863.992 501.132C859.123 494.07 854.481 483.041 845.276 480.988C840.97 480.028 835.533 480.681 831.881 483.188C819.079 491.976 811.806 509.561 805.17 523.012L792.879 547.113C790.665 551.438 788.107 558.061 784.927 561.615C782.506 559.955 775.7 561.45 772.637 561.777L789.071 516.71L797.523 492.501L789.186 492.994L817.091 414.557L573.125 414.29C572.489 410.773 575.992 403.863 577.409 400.583C579.858 396.874 582.006 392.749 584.875 389.353C592.255 380.618 603.339 374.317 614.391 371.655L615.676 371.355C629.211 368.112 644.653 371.039 656.581 378.012L657.439 378.519C658.287 368.272 661.356 359.171 667.115 350.636C678.601 333.606 695.091 326.386 714.633 322.451Z" fill="#e9e5e6" fill-rule="nonzero" opacity="1" stroke="none" vectornator:layerName="path"/>
<path d="M817.091 414.557L840.615 346.108L868.434 430.517C870.375 436.144 857.357 463.051 859.653 466.526C860.011 467.069 860.669 467.341 861.176 467.75C862.597 467.746 863.484 467.716 864.759 467.004C868.358 464.993 871.834 460.792 874.873 457.979C881.08 452.232 890.524 447.066 898.396 444.243C893.058 449.13 887.017 454.039 882.516 459.692C873.352 471.197 869.147 487.541 863.992 501.132C859.123 494.07 854.481 483.041 845.276 480.988C840.97 480.028 835.533 480.681 831.881 483.188C819.079 491.976 811.806 509.561 805.17 523.012L792.879 547.113C790.665 551.438 788.107 558.061 784.927 561.615C782.506 559.955 775.7 561.45 772.637 561.777L789.071 516.71L797.523 492.501L789.186 492.994L817.091 414.557Z" fill="#33893d" fill-rule="nonzero" opacity="1" stroke="none" vectornator:layerName="path"/>
<path d="M899.233 328.211L924.06 257.529L951.655 334.051C960.93 334.57 971.718 338.888 980.526 341.807L980.45 389.293C980.434 397.232 981.44 406.839 979.699 414.533C981.233 419.642 980.571 425.824 980.532 431.147C980.464 437.371 981.066 444.49 979.611 450.531C980.157 455.637 981.208 464.196 979.83 469.126C980.973 473.661 980.404 479.044 980.402 483.709L980.353 513.417L980.468 611.907C931.721 612.4 883.108 620.799 835.254 629.252L759.316 646.715C759.944 642.048 761.587 637.551 763.031 633.085L769.545 612.677C771.203 607.681 775.233 599.565 774.385 594.421C776.394 590.921 777.217 586.127 778.296 582.229L784.927 561.615C788.107 558.061 790.665 551.438 792.879 547.113L805.17 523.012C811.806 509.561 819.079 491.976 831.881 483.188C835.533 480.681 840.97 480.028 845.276 480.988C854.481 483.041 859.123 494.07 863.992 501.132C869.147 487.541 873.352 471.197 882.516 459.692C887.017 454.039 893.058 449.13 898.396 444.243C890.524 447.066 881.08 452.232 874.873 457.979C871.834 460.792 868.358 464.993 864.759 467.004C863.484 467.716 862.597 467.746 861.176 467.75C860.669 467.341 860.011 467.069 859.653 466.526C857.357 463.051 870.375 436.144 868.434 430.517C870.501 427.317 871.044 422.018 872.045 418.296L883.365 375.615L899.233 328.211Z" fill="#61b045" fill-rule="nonzero" opacity="1" stroke="none" vectornator:layerName="path"/>
<path d="M979.611 450.531C976.268 444.821 974.435 436.825 972.314 430.536L980.532 431.147C980.464 437.371 981.066 444.49 979.611 450.531Z" fill="#83d3e0" fill-rule="nonzero" opacity="1" stroke="none" vectornator:layerName="path"/>
<path d="M943.168 542.219C952.482 544.81 960.794 550.068 968.814 555.314C972.957 558.024 976.28 561.745 979.723 565.266C979.792 571.561 980.212 578.078 979.464 584.334C977.934 582.424 977.268 580.038 976.103 577.894C974.348 574.658 972.34 571.518 970.325 568.433C962.773 556.874 953.377 550.991 943.168 542.219Z" fill="#398168" fill-rule="nonzero" opacity="1" stroke="none" vectornator:layerName="path"/>
<path d="M959.419 460.463L945.422 447.816C953.824 451.334 962.212 455.204 969.514 460.721C972.883 463.265 976.197 467.149 979.83 469.126L979.611 496.181C974.263 483.456 968.391 471.096 959.419 460.463Z" fill="#398168" fill-rule="nonzero" opacity="1" stroke="none" vectornator:layerName="path"/>
<path d="M951.655 334.051C960.93 334.57 971.718 338.888 980.526 341.807L980.45 389.293C980.434 397.232 981.44 406.839 979.699 414.533C975.429 406.331 972.848 396.673 969.833 387.96L951.655 334.051Z" fill="#83d3e0" fill-rule="nonzero" opacity="1" stroke="none" vectornator:layerName="path"/>
<path d="M784.927 561.615C788.107 558.061 790.665 551.438 792.879 547.113L805.17 523.012C811.806 509.561 819.079 491.976 831.881 483.188C835.533 480.681 840.97 480.028 845.276 480.988C854.481 483.041 859.123 494.07 863.992 501.132L841.62 563.811C856.861 558.002 869.617 546.79 885.257 542.356C878.77 546.997 872.129 551.506 867.08 557.766C861.523 564.657 858.146 573.316 854.604 581.341L835.254 629.252L759.316 646.715C759.944 642.048 761.587 637.551 763.031 633.085L769.545 612.677C771.203 607.681 775.233 599.565 774.385 594.421C776.394 590.921 777.217 586.127 778.296 582.229L784.927 561.615Z" fill="#398168" fill-rule="nonzero" opacity="1" stroke="none" vectornator:layerName="path"/>
</g>
</svg>
